<?xml version="1.0" encoding="UTF-8" standalone="no"?>
<svg
   id="Layer_1"
   data-name="Layer 1"
   viewBox="0 0 700 170"
   version="1.1"
   sodipodi:docname="dpdp-wfst.svg"
   inkscape:version="1.4 (86a8ad7, 2024-10-11)"
   xmlns:inkscape="http://www.inkscape.org/namespaces/inkscape"
   xmlns:sodipodi="http://sodipodi.sourceforge.net/DTD/sodipodi-0.dtd"
   xmlns="http://www.w3.org/2000/svg"
   xmlns:svg="http://www.w3.org/2000/svg">
  <sodipodi:namedview
     id="namedview148"
     pagecolor="#ffffff"
     bordercolor="#000000"
     borderopacity="0.25"
     inkscape:showpageshadow="2"
     inkscape:pageopacity="0.0"
     inkscape:pagecheckerboard="0"
     inkscape:deskcolor="#d1d1d1"
     inkscape:zoom="2.4405285"
     inkscape:cx="317.75904"
     inkscape:cy="98.953975"
     inkscape:window-width="2560"
     inkscape:window-height="1369"
     inkscape:window-x="1072"
     inkscape:window-y="162"
     inkscape:window-maximized="1"
     inkscape:current-layer="Layer_1" />
  <defs
     id="defs1">
    <style
       id="style1">.cls-1{fill:#fff;}.cls-1,.cls-2{stroke:#000;stroke-miterlimit:10;stroke-width:2px;}.cls-2{fill:none;}</style>
  </defs>
  <rect
     style="fill:#ffffff;fill-opacity:1"
     id="rect148"
     width="699.84839"
     height="170.45488"
     x="0"
     y="0" />
  <circle
     class="cls-1"
     cx="190"
     cy="30"
     r="20"
     id="circle1" />
  <path
     d="M185.86,24.76v8.77h1.61a1.23,1.23,0,0,1,.83.22.82.82,0,0,1,0,1.16,1.29,1.29,0,0,1-.83.22h-4.83a1.29,1.29,0,0,1-.83-.22.78.78,0,0,1-.24-.59.75.75,0,0,1,.24-.57,1.23,1.23,0,0,1,.83-.22h1.61V26.85l-1.43.37a2.44,2.44,0,0,1-.51.1.72.72,0,0,1-.53-.25.83.83,0,0,1-.22-.59.72.72,0,0,1,.16-.5,1.46,1.46,0,0,1,.69-.33Z"
     id="path1" />
  <path
     d="M196.4,35.13v-.38a4.67,4.67,0,0,1-1.33.48,5.92,5.92,0,0,1-1.32.16,3.09,3.09,0,0,1-2.09-.68,2,2,0,0,1-.8-1.51,2.45,2.45,0,0,1,1-1.87,4.27,4.27,0,0,1,2.84-.87,11,11,0,0,1,1.68.16v-.38a.69.69,0,0,0-.31-.59,2.09,2.09,0,0,0-1.17-.23,8,8,0,0,0-1.85.29,3.56,3.56,0,0,1-.65.1.71.71,0,0,1-.54-.23.82.82,0,0,1-.23-.59.72.72,0,0,1,.08-.35.64.64,0,0,1,.22-.24,2.75,2.75,0,0,1,.59-.22,11.25,11.25,0,0,1,1.21-.26,7.86,7.86,0,0,1,1.11-.1,3.68,3.68,0,0,1,2.32.65,2.1,2.1,0,0,1,.82,1.76v3.3h.28a1.2,1.2,0,0,1,.82.22.8.8,0,0,1,0,1.16,1.26,1.26,0,0,1-.82.22Zm0-2.87a9.72,9.72,0,0,0-1.77-.19,2.91,2.91,0,0,0-1.68.48.82.82,0,0,0-.44.62.41.41,0,0,0,.21.36,1.86,1.86,0,0,0,1.07.26,4.48,4.48,0,0,0,1.31-.22,5,5,0,0,0,1.3-.62Z"
     id="path2" />
  <path
     d="M224.68,24.6v-.29a3.88,3.88,0,0,1-1,.36,4.74,4.74,0,0,1-1,.12,2.38,2.38,0,0,1-1.58-.51,1.48,1.48,0,0,1-.6-1.13,1.83,1.83,0,0,1,.77-1.4,3.19,3.19,0,0,1,2.13-.65,8.71,8.71,0,0,1,1.26.11v-.28a.53.53,0,0,0-.23-.44,1.62,1.62,0,0,0-.88-.17,5.93,5.93,0,0,0-1.38.21,2.49,2.49,0,0,1-.5.08.52.52,0,0,1-.4-.18.57.57,0,0,1-.17-.44.53.53,0,0,1,.06-.26.4.4,0,0,1,.16-.18,1.66,1.66,0,0,1,.44-.16,7,7,0,0,1,.91-.2,5.27,5.27,0,0,1,.84-.07,2.76,2.76,0,0,1,1.73.48,1.56,1.56,0,0,1,.62,1.32v2.47h.21a.94.94,0,0,1,.62.17.57.57,0,0,1,.18.44.57.57,0,0,1-.18.43.94.94,0,0,1-.62.17Zm0-2.15a6.53,6.53,0,0,0-1.33-.15,2.17,2.17,0,0,0-1.26.36.62.62,0,0,0-.33.46.33.33,0,0,0,.16.28,1.44,1.44,0,0,0,.8.19,3.21,3.21,0,0,0,1-.17,3.34,3.34,0,0,0,1-.46Z"
     id="path3" />
  <path
     d="M232,20.08a.78.78,0,0,1-.24.57,1.08,1.08,0,0,1-1.33,0,.78.78,0,0,1-.24-.57.75.75,0,0,1,.24-.57,1.08,1.08,0,0,1,1.33,0A.75.75,0,0,1,232,20.08ZM232,24a.75.75,0,0,1-.24.57.93.93,0,0,1-.66.23,1,1,0,0,1-.67-.23.8.8,0,0,1,0-1.14,1,1,0,0,1,.67-.23.93.93,0,0,1,.66.23A.75.75,0,0,1,232,24Z"
     id="path4" />
  <path
     d="M239.56,24.6v-.29a3.88,3.88,0,0,1-1,.36,4.59,4.59,0,0,1-1,.12,2.33,2.33,0,0,1-1.57-.51,1.49,1.49,0,0,1-.61-1.13,1.83,1.83,0,0,1,.77-1.4,3.19,3.19,0,0,1,2.13-.65,8.71,8.71,0,0,1,1.26.11v-.28a.5.5,0,0,0-.23-.44,1.62,1.62,0,0,0-.88-.17,6,6,0,0,0-1.38.21,2.41,2.41,0,0,1-.49.08.54.54,0,0,1-.41-.18A.6.6,0,0,1,236,20a.53.53,0,0,1,.06-.26.4.4,0,0,1,.16-.18,1.66,1.66,0,0,1,.44-.16,7,7,0,0,1,.91-.2,5.27,5.27,0,0,1,.84-.07,2.77,2.77,0,0,1,1.74.48,1.59,1.59,0,0,1,.62,1.32v2.47h.2a.92.92,0,0,1,.62.17.57.57,0,0,1,.18.44.57.57,0,0,1-.18.43.92.92,0,0,1-.62.17Zm0-2.15a6.53,6.53,0,0,0-1.33-.15,2.22,2.22,0,0,0-1.26.36.63.63,0,0,0-.32.46.32.32,0,0,0,.15.28,1.47,1.47,0,0,0,.81.19,3.16,3.16,0,0,0,1-.17,3.34,3.34,0,0,0,1-.46Z"
     id="path5" />
  <path
     d="M248.4,17.15l-3.85,8.3a1.52,1.52,0,0,1-.26.41.61.61,0,0,1-.37.12.58.58,0,0,1-.43-.18.53.53,0,0,1-.18-.4,1.32,1.32,0,0,1,.14-.46l3.87-8.29a1.14,1.14,0,0,1,.25-.4.56.56,0,0,1,.37-.13.54.54,0,0,1,.42.18.51.51,0,0,1,.18.39A1.26,1.26,0,0,1,248.4,17.15Z"
     id="path6" />
  <path
     d="M256.15,20.48V25.9h.21a.89.89,0,0,1,.61.17.55.55,0,0,1,.19.44.57.57,0,0,1-.18.43.92.92,0,0,1-.62.16h-2.12a.92.92,0,0,1-.62-.16.54.54,0,0,1-.19-.43.55.55,0,0,1,.19-.44.92.92,0,0,1,.62-.17H255v-2a3.74,3.74,0,0,1-.89.41,3.25,3.25,0,0,1-.92.13,3.11,3.11,0,0,1-1.93-.64,2.37,2.37,0,0,1-1-2,2.63,2.63,0,0,1,.86-1.92,3,3,0,0,1,2.11-.83,2.89,2.89,0,0,1,.92.14,2.94,2.94,0,0,1,.87.43v-.41h1.41a.89.89,0,0,1,.61.16.55.55,0,0,1,.19.44.57.57,0,0,1-.18.43.92.92,0,0,1-.62.17ZM255,21.87a1.53,1.53,0,0,0-.2-.64,1.65,1.65,0,0,0-.61-.65,1.83,1.83,0,0,0-1-.26,1.68,1.68,0,0,0-1.42.67,1.48,1.48,0,0,0-.36.89,1.27,1.27,0,0,0,.51.94,2,2,0,0,0,2.54,0A1.28,1.28,0,0,0,255,21.87Z"
     id="path7" />
  <path
     d="M258.65,27.89h1.53a.4.4,0,0,1,.24-.1.33.33,0,0,1,.26.1.59.59,0,0,1,.09.37v.33h-3.19v-.74a27.14,27.14,0,0,0,2.29-2,.7.7,0,0,0,.2-.43.59.59,0,0,0-.23-.45.83.83,0,0,0-.59-.2.91.91,0,0,0-.63.22.71.71,0,0,0-.21.34.36.36,0,0,1-.13.21.35.35,0,0,1-.21.06.37.37,0,0,1-.24-.1.34.34,0,0,1-.11-.24,1.08,1.08,0,0,1,.19-.51,1.41,1.41,0,0,1,.55-.5,1.8,1.8,0,0,1,.8-.18,1.49,1.49,0,0,1,1.08.4,1.3,1.3,0,0,1,.43,1,1.26,1.26,0,0,1-.13.54,2.83,2.83,0,0,1-.58.68C259.82,26.88,259.35,27.3,258.65,27.89Z"
     id="path8" />
  <path
     d="M264.27,28.59v-.16a2.48,2.48,0,0,1-.58.21,3.15,3.15,0,0,1-.57.07,1.36,1.36,0,0,1-.92-.3.85.85,0,0,1-.35-.66,1.06,1.06,0,0,1,.45-.82,1.87,1.87,0,0,1,1.24-.38,5.24,5.24,0,0,1,.73.07v-.17a.29.29,0,0,0-.13-.25.9.9,0,0,0-.52-.1,3.6,3.6,0,0,0-.8.12,1.35,1.35,0,0,1-.29.05.34.34,0,0,1-.24-.11.35.35,0,0,1-.09-.25.41.41,0,0,1,0-.16.32.32,0,0,1,.1-.1,1,1,0,0,1,.25-.1l.53-.11a3,3,0,0,1,.49,0,1.58,1.58,0,0,1,1,.28.92.92,0,0,1,.36.77v1.44h.12a.5.5,0,0,1,.36.1.3.3,0,0,1,.11.25.28.28,0,0,1-.11.25.5.5,0,0,1-.36.1Zm0-1.25a3.66,3.66,0,0,0-.77-.08,1.36,1.36,0,0,0-.74.2c-.12.09-.19.18-.19.27a.18.18,0,0,0,.09.16.82.82,0,0,0,.47.12,2.26,2.26,0,0,0,1.14-.37Z"
     id="path9" />
  <path
     d="M272,21.74h-5v-1.1h5Z"
     id="path10" />
  <path
     d="M274.4,23.39l1.81-3.64-.83-1.55h-.54c-.53,0-.8-.2-.8-.6s.27-.6.8-.6h1.24l3.47,6.39q.81,0,.81.6c0,.4-.27.61-.81.61h-1.19c-.53,0-.8-.21-.8-.61s.21-.56.62-.6L276.9,21l-1.17,2.36c.43,0,.64.23.64.6s-.27.61-.8.61h-1.16c-.54,0-.8-.21-.8-.61S273.87,23.39,274.4,23.39Z"
     id="path11" />
  <path
     d="M94.68,24.6v-.29a3.88,3.88,0,0,1-1,.36,4.74,4.74,0,0,1-1,.12,2.38,2.38,0,0,1-1.58-.51,1.48,1.48,0,0,1-.6-1.13,1.83,1.83,0,0,1,.77-1.4,3.19,3.19,0,0,1,2.13-.65,8.71,8.71,0,0,1,1.26.11v-.28a.53.53,0,0,0-.23-.44,1.62,1.62,0,0,0-.88-.17,5.93,5.93,0,0,0-1.38.21,2.49,2.49,0,0,1-.5.08.52.52,0,0,1-.4-.18.57.57,0,0,1-.17-.44.53.53,0,0,1,.06-.26.4.4,0,0,1,.16-.18,1.66,1.66,0,0,1,.44-.16,7,7,0,0,1,.91-.2,5.27,5.27,0,0,1,.84-.07,2.76,2.76,0,0,1,1.73.48,1.56,1.56,0,0,1,.62,1.32v2.47h.21a.94.94,0,0,1,.62.17.57.57,0,0,1,.18.44.57.57,0,0,1-.18.43.94.94,0,0,1-.62.17Zm0-2.15a6.53,6.53,0,0,0-1.33-.15,2.17,2.17,0,0,0-1.26.36.62.62,0,0,0-.33.46.33.33,0,0,0,.16.28,1.44,1.44,0,0,0,.8.19,3.21,3.21,0,0,0,1-.17,3.34,3.34,0,0,0,1-.46Z"
     id="path12" />
  <path
     d="M102,20.08a.78.78,0,0,1-.24.57,1.08,1.08,0,0,1-1.33,0,.78.78,0,0,1-.24-.57.75.75,0,0,1,.24-.57,1.08,1.08,0,0,1,1.33,0A.75.75,0,0,1,102,20.08ZM102,24a.75.75,0,0,1-.24.57.93.93,0,0,1-.66.23,1,1,0,0,1-.67-.23.8.8,0,0,1,0-1.14,1,1,0,0,1,.67-.23.93.93,0,0,1,.66.23A.75.75,0,0,1,102,24Z"
     id="path13" />
  <path
     d="M109.56,24.6v-.29a3.88,3.88,0,0,1-1,.36,4.59,4.59,0,0,1-1,.12,2.33,2.33,0,0,1-1.57-.51,1.49,1.49,0,0,1-.61-1.13,1.83,1.83,0,0,1,.77-1.4,3.19,3.19,0,0,1,2.13-.65,8.71,8.71,0,0,1,1.26.11v-.28a.5.5,0,0,0-.23-.44,1.62,1.62,0,0,0-.88-.17,6,6,0,0,0-1.38.21,2.41,2.41,0,0,1-.49.08.54.54,0,0,1-.41-.18A.6.6,0,0,1,106,20a.53.53,0,0,1,.06-.26.4.4,0,0,1,.16-.18,1.66,1.66,0,0,1,.44-.16,7,7,0,0,1,.91-.2,5.27,5.27,0,0,1,.84-.07,2.77,2.77,0,0,1,1.74.48,1.59,1.59,0,0,1,.62,1.32v2.47h.2a.92.92,0,0,1,.62.17.57.57,0,0,1,.18.44.57.57,0,0,1-.18.43.92.92,0,0,1-.62.17Zm0-2.15a6.53,6.53,0,0,0-1.33-.15,2.22,2.22,0,0,0-1.26.36.63.63,0,0,0-.32.46.32.32,0,0,0,.15.28,1.47,1.47,0,0,0,.81.19,3.16,3.16,0,0,0,1-.17,3.34,3.34,0,0,0,1-.46Z"
     id="path14" />
  <path
     d="M118.4,17.15l-3.85,8.3a1.52,1.52,0,0,1-.26.41.61.61,0,0,1-.37.12.58.58,0,0,1-.43-.18.53.53,0,0,1-.18-.4,1.32,1.32,0,0,1,.14-.46l3.87-8.29a1.14,1.14,0,0,1,.25-.4.56.56,0,0,1,.37-.13.54.54,0,0,1,.42.18.51.51,0,0,1,.18.39A1.26,1.26,0,0,1,118.4,17.15Z"
     id="path15" />
  <path
     d="M126.15,20.48V25.9h.21a.89.89,0,0,1,.61.17.55.55,0,0,1,.19.44.57.57,0,0,1-.18.43.92.92,0,0,1-.62.16h-2.12a.92.92,0,0,1-.62-.16.54.54,0,0,1-.19-.43.55.55,0,0,1,.19-.44.92.92,0,0,1,.62-.17H125v-2a3.74,3.74,0,0,1-.89.41,3.25,3.25,0,0,1-.92.13,3.11,3.11,0,0,1-1.93-.64,2.37,2.37,0,0,1-1-2,2.63,2.63,0,0,1,.86-1.92,3,3,0,0,1,2.11-.83,2.89,2.89,0,0,1,.92.14,2.94,2.94,0,0,1,.87.43v-.41h1.41a.89.89,0,0,1,.61.16.55.55,0,0,1,.19.44.57.57,0,0,1-.18.43.92.92,0,0,1-.62.17ZM125,21.87a1.53,1.53,0,0,0-.2-.64,1.65,1.65,0,0,0-.61-.65,1.83,1.83,0,0,0-1-.26,1.68,1.68,0,0,0-1.42.67,1.48,1.48,0,0,0-.36.89,1.27,1.27,0,0,0,.51.94,2,2,0,0,0,2.54,0A1.28,1.28,0,0,0,125,21.87Z"
     id="path16" />
  <path
     d="M129.66,24.06v3.83h.71a.5.5,0,0,1,.36.1.33.33,0,0,1,.11.25.31.31,0,0,1-.11.25.5.5,0,0,1-.36.1h-2.12a.53.53,0,0,1-.36-.1.36.36,0,0,1,0-.5.53.53,0,0,1,.36-.1H129V25l-.62.16a1,1,0,0,1-.23.05.31.31,0,0,1-.23-.11.4.4,0,0,1-.1-.26.31.31,0,0,1,.08-.22.59.59,0,0,1,.3-.14Z"
     id="path17" />
  <path
     d="M134.27,28.59v-.16a2.48,2.48,0,0,1-.58.21,3.15,3.15,0,0,1-.57.07,1.36,1.36,0,0,1-.92-.3.85.85,0,0,1-.35-.66,1.06,1.06,0,0,1,.45-.82,1.87,1.87,0,0,1,1.24-.38,5.24,5.24,0,0,1,.73.07v-.17a.29.29,0,0,0-.13-.25.9.9,0,0,0-.52-.1,3.6,3.6,0,0,0-.8.12,1.35,1.35,0,0,1-.29.05.34.34,0,0,1-.24-.11.35.35,0,0,1-.09-.25.41.41,0,0,1,0-.16.32.32,0,0,1,.1-.1,1,1,0,0,1,.25-.1l.53-.11a3,3,0,0,1,.49,0,1.58,1.58,0,0,1,1,.28.92.92,0,0,1,.36.77v1.44h.12a.5.5,0,0,1,.36.1.3.3,0,0,1,.11.25.28.28,0,0,1-.11.25.5.5,0,0,1-.36.1Zm0-1.25a3.66,3.66,0,0,0-.77-.08,1.36,1.36,0,0,0-.74.2c-.12.09-.19.18-.19.27a.18.18,0,0,0,.09.16.82.82,0,0,0,.47.12,2.26,2.26,0,0,0,1.14-.37Z"
     id="path18" />
  <path
     d="M384.68,24.6v-.29a3.88,3.88,0,0,1-1,.36,4.74,4.74,0,0,1-1,.12,2.38,2.38,0,0,1-1.58-.51,1.48,1.48,0,0,1-.6-1.13,1.83,1.83,0,0,1,.77-1.4,3.19,3.19,0,0,1,2.13-.65,8.71,8.71,0,0,1,1.26.11v-.28a.53.53,0,0,0-.23-.44,1.62,1.62,0,0,0-.88-.17,5.93,5.93,0,0,0-1.38.21,2.49,2.49,0,0,1-.5.08.52.52,0,0,1-.4-.18.57.57,0,0,1-.17-.44.53.53,0,0,1,.06-.26.4.4,0,0,1,.16-.18,1.66,1.66,0,0,1,.44-.16,7,7,0,0,1,.91-.2,5.27,5.27,0,0,1,.84-.07,2.76,2.76,0,0,1,1.73.48,1.56,1.56,0,0,1,.62,1.32v2.47h.21a.94.94,0,0,1,.62.17.57.57,0,0,1,.18.44.57.57,0,0,1-.18.43.94.94,0,0,1-.62.17Zm0-2.15a6.53,6.53,0,0,0-1.33-.15,2.17,2.17,0,0,0-1.26.36.62.62,0,0,0-.33.46.33.33,0,0,0,.16.28,1.44,1.44,0,0,0,.8.19,3.21,3.21,0,0,0,1-.17,3.34,3.34,0,0,0,1-.46Z"
     id="path19" />
  <path
     d="M392,20.08a.78.78,0,0,1-.24.57,1.08,1.08,0,0,1-1.33,0,.78.78,0,0,1-.24-.57.75.75,0,0,1,.24-.57,1.08,1.08,0,0,1,1.33,0A.75.75,0,0,1,392,20.08ZM392,24a.75.75,0,0,1-.24.57.93.93,0,0,1-.66.23,1,1,0,0,1-.67-.23.8.8,0,0,1,0-1.14,1,1,0,0,1,.67-.23.93.93,0,0,1,.66.23A.75.75,0,0,1,392,24Z"
     id="path20" />
  <path
     d="M399.56,24.6v-.29a3.88,3.88,0,0,1-1,.36,4.59,4.59,0,0,1-1,.12,2.33,2.33,0,0,1-1.57-.51,1.49,1.49,0,0,1-.61-1.13,1.83,1.83,0,0,1,.77-1.4,3.19,3.19,0,0,1,2.13-.65,8.71,8.71,0,0,1,1.26.11v-.28a.5.5,0,0,0-.23-.44,1.62,1.62,0,0,0-.88-.17,6,6,0,0,0-1.38.21,2.41,2.41,0,0,1-.49.08.54.54,0,0,1-.41-.18A.6.6,0,0,1,396,20a.53.53,0,0,1,.06-.26.4.4,0,0,1,.16-.18,1.66,1.66,0,0,1,.44-.16,7,7,0,0,1,.91-.2,5.27,5.27,0,0,1,.84-.07,2.77,2.77,0,0,1,1.74.48,1.59,1.59,0,0,1,.62,1.32v2.47h.2a.92.92,0,0,1,.62.17.57.57,0,0,1,.18.44.57.57,0,0,1-.18.43.92.92,0,0,1-.62.17Zm0-2.15a6.53,6.53,0,0,0-1.33-.15,2.22,2.22,0,0,0-1.26.36.63.63,0,0,0-.32.46.32.32,0,0,0,.15.28,1.47,1.47,0,0,0,.81.19,3.16,3.16,0,0,0,1-.17,3.34,3.34,0,0,0,1-.46Z"
     id="path21" />
  <path
     d="M408.4,17.15l-3.85,8.3a1.52,1.52,0,0,1-.26.41.61.61,0,0,1-.37.12.58.58,0,0,1-.43-.18.53.53,0,0,1-.18-.4,1.32,1.32,0,0,1,.14-.46l3.87-8.29a1.14,1.14,0,0,1,.25-.4.56.56,0,0,1,.37-.13.54.54,0,0,1,.42.18.51.51,0,0,1,.18.39A1.26,1.26,0,0,1,408.4,17.15Z"
     id="path22" />
  <path
     d="M416.15,20.48V25.9h.21a.89.89,0,0,1,.61.17.55.55,0,0,1,.19.44.57.57,0,0,1-.18.43.92.92,0,0,1-.62.16h-2.12a.92.92,0,0,1-.62-.16.54.54,0,0,1-.19-.43.55.55,0,0,1,.19-.44.92.92,0,0,1,.62-.17H415v-2a3.74,3.74,0,0,1-.89.41,3.25,3.25,0,0,1-.92.13,3.11,3.11,0,0,1-1.93-.64,2.37,2.37,0,0,1-1-2,2.63,2.63,0,0,1,.86-1.92,3,3,0,0,1,2.11-.83,2.89,2.89,0,0,1,.92.14,2.94,2.94,0,0,1,.87.43v-.41h1.41a.89.89,0,0,1,.61.16.55.55,0,0,1,.19.44.57.57,0,0,1-.18.43.92.92,0,0,1-.62.17ZM415,21.87a1.53,1.53,0,0,0-.2-.64,1.65,1.65,0,0,0-.61-.65,1.83,1.83,0,0,0-1-.26,1.68,1.68,0,0,0-1.42.67,1.48,1.48,0,0,0-.36.89,1.27,1.27,0,0,0,.51.94,2,2,0,0,0,2.54,0A1.28,1.28,0,0,0,415,21.87Z"
     id="path23" />
  <path
     d="M420.3,26.25a1.45,1.45,0,0,1,.47.49,1.3,1.3,0,0,1,.15.63,1.24,1.24,0,0,1-.79,1.16,2.61,2.61,0,0,1-1,.16,2.34,2.34,0,0,1-1.22-.25.39.39,0,0,1-.23-.34.33.33,0,0,1,.1-.25.32.32,0,0,1,.24-.11.35.35,0,0,1,.21.07,1,1,0,0,0,.28.14,2.86,2.86,0,0,0,.56,0,1.81,1.81,0,0,0,.89-.16.48.48,0,0,0,.27-.44.63.63,0,0,0-.16-.42,1,1,0,0,0-.42-.31,1.76,1.76,0,0,0-.52-.08.42.42,0,0,1-.27-.11.36.36,0,0,1-.09-.24.35.35,0,0,1,.1-.26.38.38,0,0,1,.26-.1h.37a.72.72,0,0,0,.27-.09.58.58,0,0,0,.23-.21.5.5,0,0,0,.08-.27.48.48,0,0,0-.2-.38.9.9,0,0,0-.59-.16,1,1,0,0,0-.77.29.4.4,0,0,1-.13.11.38.38,0,0,1-.16,0,.34.34,0,0,1-.24-.11.32.32,0,0,1-.1-.25.59.59,0,0,1,.31-.46,2,2,0,0,1,1.14-.32,1.46,1.46,0,0,1,1.05.37,1.17,1.17,0,0,1,.39.89,1.08,1.08,0,0,1-.12.5A1.17,1.17,0,0,1,420.3,26.25Z"
     id="path24" />
  <path
     d="M424.27,28.59v-.16a2.48,2.48,0,0,1-.58.21,3.15,3.15,0,0,1-.57.07,1.36,1.36,0,0,1-.92-.3.85.85,0,0,1-.35-.66,1.06,1.06,0,0,1,.45-.82,1.87,1.87,0,0,1,1.24-.38,5.24,5.24,0,0,1,.73.07v-.17a.29.29,0,0,0-.13-.25.9.9,0,0,0-.52-.1,3.6,3.6,0,0,0-.8.12,1.35,1.35,0,0,1-.29.05.34.34,0,0,1-.24-.11.35.35,0,0,1-.09-.25.41.41,0,0,1,0-.16.32.32,0,0,1,.1-.1,1,1,0,0,1,.25-.1l.53-.11a3,3,0,0,1,.49,0,1.58,1.58,0,0,1,1,.28.92.92,0,0,1,.36.77v1.44h.12a.5.5,0,0,1,.36.1.3.3,0,0,1,.11.25.28.28,0,0,1-.11.25.5.5,0,0,1-.36.1Zm0-1.25a3.66,3.66,0,0,0-.77-.08,1.36,1.36,0,0,0-.74.2c-.12.09-.19.18-.19.27a.18.18,0,0,0,.09.16.82.82,0,0,0,.47.12,2.26,2.26,0,0,0,1.14-.37Z"
     id="path25" />
  <path
     d="M432,21.74h-5v-1.1h5Z"
     id="path26" />
  <path
     d="M434.4,23.39l1.81-3.64-.83-1.55h-.54c-.53,0-.8-.2-.8-.6s.27-.6.8-.6h1.24l3.47,6.39q.81,0,.81.6c0,.4-.27.61-.81.61h-1.19c-.53,0-.8-.21-.8-.61s.21-.56.62-.6L436.9,21l-1.17,2.36c.43,0,.64.23.64.6s-.27.61-.8.61h-1.16c-.54,0-.8-.21-.8-.61S433.87,23.39,434.4,23.39Z"
     id="path27" />
  <path
     d="M222.09,117v2.69a3.83,3.83,0,0,1,.89-.43,3.21,3.21,0,0,1,.92-.14A2.86,2.86,0,0,1,226,120a2.82,2.82,0,0,1,.87,2.08,2.58,2.58,0,0,1-.83,2,3,3,0,0,1-2.18.78,3.46,3.46,0,0,1-.92-.12,3.85,3.85,0,0,1-.86-.37v.3h-1.41a.92.92,0,0,1-.62-.17.57.57,0,0,1-.18-.44.57.57,0,0,1,.18-.43.94.94,0,0,1,.62-.17h.2V118.2h-.2a.92.92,0,0,1-.62-.17.57.57,0,0,1-.18-.44.57.57,0,0,1,.18-.43.92.92,0,0,1,.62-.16Zm3.59,5.09a1.75,1.75,0,0,0-.52-1.26,1.77,1.77,0,0,0-1.28-.51,1.75,1.75,0,0,0-1.27.51,1.69,1.69,0,0,0-.52,1.25,1.39,1.39,0,0,0,.46,1.08,2.27,2.27,0,0,0,2.66,0A1.39,1.39,0,0,0,225.68,122.09Z"
     id="path28" />
  <path
     d="M232,120.08a.78.78,0,0,1-.24.57,1.08,1.08,0,0,1-1.33,0,.78.78,0,0,1-.24-.57.75.75,0,0,1,.24-.57,1.08,1.08,0,0,1,1.33,0A.75.75,0,0,1,232,120.08Zm0,3.93a.75.75,0,0,1-.24.57.93.93,0,0,1-.66.23,1,1,0,0,1-.67-.23.8.8,0,0,1,0-1.14,1,1,0,0,1,.67-.23.93.93,0,0,1,.66.23A.75.75,0,0,1,232,124Z"
     id="path29" />
  <path
     d="M237,117v2.69a3.83,3.83,0,0,1,.89-.43,3.26,3.26,0,0,1,.92-.14,3,3,0,0,1,3,2.94,2.57,2.57,0,0,1-.82,2,3.07,3.07,0,0,1-2.18.78,3.59,3.59,0,0,1-.93-.12,4.06,4.06,0,0,1-.86-.37v.3h-1.41a.94.94,0,0,1-.62-.17.57.57,0,0,1-.18-.44.54.54,0,0,1,.19-.43.91.91,0,0,1,.61-.17h.21V118.2h-.21a.94.94,0,0,1-.62-.17.57.57,0,0,1-.18-.44.57.57,0,0,1,.18-.43.94.94,0,0,1,.62-.16Zm3.59,5.09a1.71,1.71,0,0,0-.52-1.26,1.85,1.85,0,0,0-2.55,0,1.69,1.69,0,0,0-.52,1.25,1.36,1.36,0,0,0,.47,1.08,1.86,1.86,0,0,0,1.32.43,1.9,1.9,0,0,0,1.33-.43A1.39,1.39,0,0,0,240.56,122.09Z"
     id="path30" />
  <path
     d="M248.4,117.15l-3.85,8.3a1.52,1.52,0,0,1-.26.41.61.61,0,0,1-.37.12.58.58,0,0,1-.43-.18.53.53,0,0,1-.18-.4,1.32,1.32,0,0,1,.14-.46l3.87-8.29a1.14,1.14,0,0,1,.25-.4.56.56,0,0,1,.37-.13.54.54,0,0,1,.42.18.51.51,0,0,1,.18.39A1.26,1.26,0,0,1,248.4,117.15Z"
     id="path31" />
  <path
     d="M256.15,120.48v5.42h.21a.89.89,0,0,1,.61.17.55.55,0,0,1,.19.44.57.57,0,0,1-.18.43.92.92,0,0,1-.62.16h-2.12a.92.92,0,0,1-.62-.16.54.54,0,0,1-.19-.43.55.55,0,0,1,.19-.44.92.92,0,0,1,.62-.17H255v-2a3.74,3.74,0,0,1-.89.41,3.25,3.25,0,0,1-.92.13,3.11,3.11,0,0,1-1.93-.64,2.37,2.37,0,0,1-1-2,2.63,2.63,0,0,1,.86-1.92,3,3,0,0,1,2.11-.83,2.89,2.89,0,0,1,.92.14,2.94,2.94,0,0,1,.87.43v-.41h1.41a.89.89,0,0,1,.61.16.55.55,0,0,1,.19.44.57.57,0,0,1-.18.43.92.92,0,0,1-.62.17Zm-1.2,1.39a1.53,1.53,0,0,0-.2-.64,1.65,1.65,0,0,0-.61-.65,1.83,1.83,0,0,0-1-.26,1.68,1.68,0,0,0-1.42.67,1.48,1.48,0,0,0-.36.89,1.27,1.27,0,0,0,.51.94,2,2,0,0,0,2.54,0A1.28,1.28,0,0,0,255,121.87Z"
     id="path32" />
  <path
     d="M258.65,127.89h1.53a.4.4,0,0,1,.24-.1.33.33,0,0,1,.26.1.59.59,0,0,1,.09.37v.33h-3.19v-.74a27.14,27.14,0,0,0,2.29-2,.7.7,0,0,0,.2-.43.59.59,0,0,0-.23-.45.83.83,0,0,0-.59-.2.91.91,0,0,0-.63.22.71.71,0,0,0-.21.34.36.36,0,0,1-.13.21.35.35,0,0,1-.21.06.37.37,0,0,1-.24-.1.34.34,0,0,1-.11-.24,1.08,1.08,0,0,1,.19-.51,1.41,1.41,0,0,1,.55-.5,1.8,1.8,0,0,1,.8-.18,1.49,1.49,0,0,1,1.08.4,1.3,1.3,0,0,1,.43,1,1.26,1.26,0,0,1-.13.54,2.83,2.83,0,0,1-.58.68C259.82,126.88,259.35,127.3,258.65,127.89Z"
     id="path33" />
  <path
     d="M262.76,124.16v1.57a2.26,2.26,0,0,1,.52-.25,2,2,0,0,1,.54-.08,1.71,1.71,0,0,1,1.23.5,1.62,1.62,0,0,1,.5,1.21,1.51,1.51,0,0,1-.48,1.14,1.78,1.78,0,0,1-1.27.46,2,2,0,0,1-.54-.08,2.41,2.41,0,0,1-.5-.21v.17h-.82a.5.5,0,0,1-.36-.1.34.34,0,0,1,0-.5.5.5,0,0,1,.36-.1h.12v-3h-.12a.5.5,0,0,1-.36-.1.34.34,0,0,1,0-.5.5.5,0,0,1,.36-.1Zm2.09,3a1,1,0,0,0-.3-.73,1,1,0,0,0-.74-.3,1,1,0,0,0-.75.3,1,1,0,0,0-.3.72.84.84,0,0,0,.27.64,1.16,1.16,0,0,0,.78.24,1.13,1.13,0,0,0,.77-.24A.83.83,0,0,0,264.85,127.13Z"
     id="path34" />
  <path
     d="M272,121.74h-5v-1.1h5Z"
     id="path35" />
  <path
     d="M274.4,123.39l1.81-3.64-.83-1.55h-.54c-.53,0-.8-.2-.8-.6s.27-.6.8-.6h1.24l3.47,6.39q.81,0,.81.6c0,.4-.27.61-.81.61h-1.19c-.53,0-.8-.21-.8-.61s.21-.56.62-.6L276.9,121l-1.17,2.36c.43,0,.64.23.64.6s-.27.61-.8.61h-1.16c-.54,0-.8-.21-.8-.61S273.87,123.39,274.4,123.39Z"
     id="path36" />
  <path
     d="M92.09,117v2.69a3.83,3.83,0,0,1,.89-.43,3.21,3.21,0,0,1,.92-.14A2.86,2.86,0,0,1,96,120a2.82,2.82,0,0,1,.87,2.08,2.58,2.58,0,0,1-.83,2,3,3,0,0,1-2.18.78,3.46,3.46,0,0,1-.92-.12,3.85,3.85,0,0,1-.86-.37v.3H90.68a.92.92,0,0,1-.62-.17.57.57,0,0,1-.18-.44.57.57,0,0,1,.18-.43.94.94,0,0,1,.62-.17h.2V118.2h-.2a.92.92,0,0,1-.62-.17.57.57,0,0,1-.18-.44.57.57,0,0,1,.18-.43.92.92,0,0,1,.62-.16Zm3.59,5.09a1.75,1.75,0,0,0-.52-1.26,1.77,1.77,0,0,0-1.28-.51,1.75,1.75,0,0,0-1.27.51,1.69,1.69,0,0,0-.52,1.25,1.39,1.39,0,0,0,.46,1.08,2.27,2.27,0,0,0,2.66,0A1.39,1.39,0,0,0,95.68,122.09Z"
     id="path37" />
  <path
     d="M102,120.08a.78.78,0,0,1-.24.57,1.08,1.08,0,0,1-1.33,0,.78.78,0,0,1-.24-.57.75.75,0,0,1,.24-.57,1.08,1.08,0,0,1,1.33,0A.75.75,0,0,1,102,120.08Zm0,3.93a.75.75,0,0,1-.24.57.93.93,0,0,1-.66.23,1,1,0,0,1-.67-.23.8.8,0,0,1,0-1.14,1,1,0,0,1,.67-.23.93.93,0,0,1,.66.23A.75.75,0,0,1,102,124Z"
     id="path38" />
  <path
     d="M107,117v2.69a3.83,3.83,0,0,1,.89-.43,3.26,3.26,0,0,1,.92-.14,3,3,0,0,1,3,2.94,2.57,2.57,0,0,1-.82,2,3.07,3.07,0,0,1-2.18.78,3.59,3.59,0,0,1-.93-.12,4.06,4.06,0,0,1-.86-.37v.3h-1.41a.94.94,0,0,1-.62-.17.57.57,0,0,1-.18-.44.54.54,0,0,1,.19-.43.91.91,0,0,1,.61-.17h.21V118.2h-.21a.94.94,0,0,1-.62-.17.57.57,0,0,1-.18-.44.57.57,0,0,1,.18-.43.94.94,0,0,1,.62-.16Zm3.59,5.09a1.71,1.71,0,0,0-.52-1.26,1.85,1.85,0,0,0-2.55,0,1.69,1.69,0,0,0-.52,1.25,1.36,1.36,0,0,0,.47,1.08,1.86,1.86,0,0,0,1.32.43,1.9,1.9,0,0,0,1.33-.43A1.39,1.39,0,0,0,110.56,122.09Z"
     id="path39" />
  <path
     d="M118.4,117.15l-3.85,8.3a1.52,1.52,0,0,1-.26.41.61.61,0,0,1-.37.12.58.58,0,0,1-.43-.18.53.53,0,0,1-.18-.4,1.32,1.32,0,0,1,.14-.46l3.87-8.29a1.14,1.14,0,0,1,.25-.4.56.56,0,0,1,.37-.13.54.54,0,0,1,.42.18.51.51,0,0,1,.18.39A1.26,1.26,0,0,1,118.4,117.15Z"
     id="path40" />
  <path
     d="M126.15,120.48v5.42h.21a.89.89,0,0,1,.61.17.55.55,0,0,1,.19.44.57.57,0,0,1-.18.43.92.92,0,0,1-.62.16h-2.12a.92.92,0,0,1-.62-.16.54.54,0,0,1-.19-.43.55.55,0,0,1,.19-.44.92.92,0,0,1,.62-.17H125v-2a3.74,3.74,0,0,1-.89.41,3.25,3.25,0,0,1-.92.13,3.11,3.11,0,0,1-1.93-.64,2.37,2.37,0,0,1-1-2,2.63,2.63,0,0,1,.86-1.92,3,3,0,0,1,2.11-.83,2.89,2.89,0,0,1,.92.14,2.94,2.94,0,0,1,.87.43v-.41h1.41a.89.89,0,0,1,.61.16.55.55,0,0,1,.19.44.57.57,0,0,1-.18.43.92.92,0,0,1-.62.17Zm-1.2,1.39a1.53,1.53,0,0,0-.2-.64,1.65,1.65,0,0,0-.61-.65,1.83,1.83,0,0,0-1-.26,1.68,1.68,0,0,0-1.42.67,1.48,1.48,0,0,0-.36.89,1.27,1.27,0,0,0,.51.94,2,2,0,0,0,2.54,0A1.28,1.28,0,0,0,125,121.87Z"
     id="path41" />
  <path
     d="M129.66,124.06v3.83h.71a.5.5,0,0,1,.36.1.33.33,0,0,1,.11.25.31.31,0,0,1-.11.25.5.5,0,0,1-.36.1h-2.12a.53.53,0,0,1-.36-.1.36.36,0,0,1,0-.5.53.53,0,0,1,.36-.1H129V125l-.62.16a1,1,0,0,1-.23.05.31.31,0,0,1-.23-.11.4.4,0,0,1-.1-.26.31.31,0,0,1,.08-.22.59.59,0,0,1,.3-.14Z"
     id="path42" />
  <path
     d="M132.76,124.16v1.57a2.26,2.26,0,0,1,.52-.25,2,2,0,0,1,.54-.08,1.71,1.71,0,0,1,1.23.5,1.62,1.62,0,0,1,.5,1.21,1.51,1.51,0,0,1-.48,1.14,1.78,1.78,0,0,1-1.27.46,2,2,0,0,1-.54-.08,2.41,2.41,0,0,1-.5-.21v.17h-.82a.5.5,0,0,1-.36-.1.34.34,0,0,1,0-.5.5.5,0,0,1,.36-.1h.12v-3h-.12a.5.5,0,0,1-.36-.1.34.34,0,0,1,0-.5.5.5,0,0,1,.36-.1Zm2.09,3a1,1,0,0,0-.3-.73,1,1,0,0,0-.74-.3,1,1,0,0,0-.75.3,1,1,0,0,0-.3.72.84.84,0,0,0,.27.64,1.16,1.16,0,0,0,.78.24,1.13,1.13,0,0,0,.77-.24A.83.83,0,0,0,134.85,127.13Z"
     id="path43" />
  <path
     d="M222.09,36v2.69a3.83,3.83,0,0,1,.89-.43,3.21,3.21,0,0,1,.92-.14A2.86,2.86,0,0,1,226,39a2.82,2.82,0,0,1,.87,2.08,2.58,2.58,0,0,1-.83,1.95,3,3,0,0,1-2.18.78,3.46,3.46,0,0,1-.92-.12,3.85,3.85,0,0,1-.86-.37v.3h-1.41a.92.92,0,0,1-.62-.17.57.57,0,0,1-.18-.44.57.57,0,0,1,.18-.43.94.94,0,0,1,.62-.17h.2V37.2h-.2a.92.92,0,0,1-.62-.17.57.57,0,0,1-.18-.44.57.57,0,0,1,.18-.43.92.92,0,0,1,.62-.16Zm3.59,5.09a1.75,1.75,0,0,0-.52-1.26,1.77,1.77,0,0,0-1.28-.51,1.75,1.75,0,0,0-1.27.51,1.69,1.69,0,0,0-.52,1.25,1.39,1.39,0,0,0,.46,1.08,2.27,2.27,0,0,0,2.66,0A1.39,1.39,0,0,0,225.68,41.09Z"
     id="path44" />
  <path
     d="M232,39.08a.78.78,0,0,1-.24.57,1.08,1.08,0,0,1-1.33,0,.78.78,0,0,1-.24-.57.75.75,0,0,1,.24-.57,1.08,1.08,0,0,1,1.33,0A.75.75,0,0,1,232,39.08ZM232,43a.75.75,0,0,1-.24.57.93.93,0,0,1-.66.23,1,1,0,0,1-.67-.23.8.8,0,0,1,0-1.14,1,1,0,0,1,.67-.23.93.93,0,0,1,.66.23A.75.75,0,0,1,232,43Z"
     id="path45" />
  <path
     d="M237,36v2.69a3.83,3.83,0,0,1,.89-.43,3.26,3.26,0,0,1,.92-.14,3,3,0,0,1,3,2.94,2.57,2.57,0,0,1-.82,1.95,3.07,3.07,0,0,1-2.18.78,3.59,3.59,0,0,1-.93-.12,4.06,4.06,0,0,1-.86-.37v.3h-1.41a.94.94,0,0,1-.62-.17.57.57,0,0,1-.18-.44.54.54,0,0,1,.19-.43.91.91,0,0,1,.61-.17h.21V37.2h-.21a.94.94,0,0,1-.62-.17.57.57,0,0,1-.18-.44.57.57,0,0,1,.18-.43.94.94,0,0,1,.62-.16Zm3.59,5.09a1.71,1.71,0,0,0-.52-1.26,1.85,1.85,0,0,0-2.55,0,1.69,1.69,0,0,0-.52,1.25,1.36,1.36,0,0,0,.47,1.08,1.86,1.86,0,0,0,1.32.43,1.9,1.9,0,0,0,1.33-.43A1.39,1.39,0,0,0,240.56,41.09Z"
     id="path46" />
  <path
     d="M248.4,36.15l-3.85,8.3a1.52,1.52,0,0,1-.26.41.61.61,0,0,1-.37.12.58.58,0,0,1-.43-.18.53.53,0,0,1-.18-.4,1.32,1.32,0,0,1,.14-.46l3.87-8.29a1.14,1.14,0,0,1,.25-.4.56.56,0,0,1,.37-.13.54.54,0,0,1,.42.18.51.51,0,0,1,.18.39A1.26,1.26,0,0,1,248.4,36.15Z"
     id="path47" />
  <path
     d="M256.15,39.48V44.9h.21a.89.89,0,0,1,.61.17.55.55,0,0,1,.19.44.57.57,0,0,1-.18.43.92.92,0,0,1-.62.16h-2.12a.92.92,0,0,1-.62-.16.54.54,0,0,1-.19-.43.55.55,0,0,1,.19-.44.92.92,0,0,1,.62-.17H255v-2a3.74,3.74,0,0,1-.89.41,3.25,3.25,0,0,1-.92.13,3.11,3.11,0,0,1-1.93-.64,2.37,2.37,0,0,1-1-2,2.63,2.63,0,0,1,.86-1.92,3,3,0,0,1,2.11-.83,2.89,2.89,0,0,1,.92.14,2.94,2.94,0,0,1,.87.43v-.41h1.41a.89.89,0,0,1,.61.16.55.55,0,0,1,.19.44.57.57,0,0,1-.18.43.92.92,0,0,1-.62.17ZM255,40.87a1.53,1.53,0,0,0-.2-.64,1.65,1.65,0,0,0-.61-.65,1.83,1.83,0,0,0-1-.26,1.68,1.68,0,0,0-1.42.67,1.48,1.48,0,0,0-.36.89,1.27,1.27,0,0,0,.51.94,2,2,0,0,0,2.54,0A1.28,1.28,0,0,0,255,40.87Z"
     id="path48" />
  <path
     d="M258.65,46.89h1.53a.4.4,0,0,1,.24-.1.33.33,0,0,1,.26.1.59.59,0,0,1,.09.37v.33h-3.19v-.74a27.14,27.14,0,0,0,2.29-2,.7.7,0,0,0,.2-.43.59.59,0,0,0-.23-.45.83.83,0,0,0-.59-.2.91.91,0,0,0-.63.22.71.71,0,0,0-.21.34.36.36,0,0,1-.13.21.35.35,0,0,1-.21.06.37.37,0,0,1-.24-.1.34.34,0,0,1-.11-.24,1.08,1.08,0,0,1,.19-.51,1.41,1.41,0,0,1,.55-.5,1.8,1.8,0,0,1,.8-.18,1.49,1.49,0,0,1,1.08.4,1.3,1.3,0,0,1,.43,1,1.26,1.26,0,0,1-.13.54,2.83,2.83,0,0,1-.58.68C259.82,45.88,259.35,46.3,258.65,46.89Z"
     id="path49" />
  <path
     d="M262.76,43.16v1.57a2.26,2.26,0,0,1,.52-.25,2,2,0,0,1,.54-.08,1.71,1.71,0,0,1,1.23.5,1.62,1.62,0,0,1,.5,1.21,1.51,1.51,0,0,1-.48,1.14,1.78,1.78,0,0,1-1.27.46,2,2,0,0,1-.54-.08,2.41,2.41,0,0,1-.5-.21v.17h-.82a.5.5,0,0,1-.36-.1.34.34,0,0,1,0-.5.5.5,0,0,1,.36-.1h.12v-3h-.12a.5.5,0,0,1-.36-.1.34.34,0,0,1,0-.5.5.5,0,0,1,.36-.1Zm2.09,3a1,1,0,0,0-.3-.73,1,1,0,0,0-.74-.3,1,1,0,0,0-.75.3,1,1,0,0,0-.3.72.84.84,0,0,0,.27.64,1.16,1.16,0,0,0,.78.24,1.13,1.13,0,0,0,.77-.24A.83.83,0,0,0,264.85,46.13Z"
     id="path50" />
  <path
     d="M224.68,104.6v-.29a3.88,3.88,0,0,1-1,.36,4.74,4.74,0,0,1-1,.12,2.38,2.38,0,0,1-1.58-.51,1.48,1.48,0,0,1-.6-1.13,1.83,1.83,0,0,1,.77-1.4,3.19,3.19,0,0,1,2.13-.65,8.71,8.71,0,0,1,1.26.11v-.28a.53.53,0,0,0-.23-.44,1.62,1.62,0,0,0-.88-.17,5.93,5.93,0,0,0-1.38.21,2.49,2.49,0,0,1-.5.08.52.52,0,0,1-.4-.18.57.57,0,0,1-.17-.44.53.53,0,0,1,.06-.26.4.4,0,0,1,.16-.18,1.66,1.66,0,0,1,.44-.16,7,7,0,0,1,.91-.2,5.27,5.27,0,0,1,.84-.07,2.76,2.76,0,0,1,1.73.48,1.56,1.56,0,0,1,.62,1.32v2.47h.21a.94.94,0,0,1,.62.17.57.57,0,0,1,.18.44.57.57,0,0,1-.18.43.94.94,0,0,1-.62.17Zm0-2.15a6.53,6.53,0,0,0-1.33-.15,2.17,2.17,0,0,0-1.26.36.62.62,0,0,0-.33.46.33.33,0,0,0,.16.28,1.44,1.44,0,0,0,.8.19,3.21,3.21,0,0,0,1-.17,3.34,3.34,0,0,0,1-.46Z"
     id="path51" />
  <path
     d="M232,100.08a.78.78,0,0,1-.24.57,1.08,1.08,0,0,1-1.33,0,.78.78,0,0,1-.24-.57.75.75,0,0,1,.24-.57,1.08,1.08,0,0,1,1.33,0A.75.75,0,0,1,232,100.08Zm0,3.93a.75.75,0,0,1-.24.57.93.93,0,0,1-.66.23,1,1,0,0,1-.67-.23.8.8,0,0,1,0-1.14,1,1,0,0,1,.67-.23.93.93,0,0,1,.66.23A.75.75,0,0,1,232,104Z"
     id="path52" />
  <path
     d="M239.56,104.6v-.29a3.88,3.88,0,0,1-1,.36,4.59,4.59,0,0,1-1,.12,2.33,2.33,0,0,1-1.57-.51,1.49,1.49,0,0,1-.61-1.13,1.83,1.83,0,0,1,.77-1.4,3.19,3.19,0,0,1,2.13-.65,8.71,8.71,0,0,1,1.26.11v-.28a.5.5,0,0,0-.23-.44,1.62,1.62,0,0,0-.88-.17,6,6,0,0,0-1.38.21,2.41,2.41,0,0,1-.49.08.54.54,0,0,1-.41-.18A.6.6,0,0,1,236,100a.53.53,0,0,1,.06-.26.4.4,0,0,1,.16-.18,1.66,1.66,0,0,1,.44-.16,7,7,0,0,1,.91-.2,5.27,5.27,0,0,1,.84-.07,2.77,2.77,0,0,1,1.74.48,1.59,1.59,0,0,1,.62,1.32v2.47h.2a.92.92,0,0,1,.62.17.57.57,0,0,1,.18.44.57.57,0,0,1-.18.43.92.92,0,0,1-.62.17Zm0-2.15a6.53,6.53,0,0,0-1.33-.15,2.22,2.22,0,0,0-1.26.36.63.63,0,0,0-.32.46.32.32,0,0,0,.15.28,1.47,1.47,0,0,0,.81.19,3.16,3.16,0,0,0,1-.17,3.34,3.34,0,0,0,1-.46Z"
     id="path53" />
  <path
     d="M248.4,97.15l-3.85,8.3a1.52,1.52,0,0,1-.26.41.61.61,0,0,1-.37.12.58.58,0,0,1-.43-.18.53.53,0,0,1-.18-.4,1.32,1.32,0,0,1,.14-.46l3.87-8.29a1.14,1.14,0,0,1,.25-.4.56.56,0,0,1,.37-.13.54.54,0,0,1,.42.18.51.51,0,0,1,.18.39A1.26,1.26,0,0,1,248.4,97.15Z"
     id="path54" />
  <path
     d="M256.15,100.48v5.42h.21a.89.89,0,0,1,.61.17.55.55,0,0,1,.19.44.57.57,0,0,1-.18.43.92.92,0,0,1-.62.16h-2.12a.92.92,0,0,1-.62-.16.54.54,0,0,1-.19-.43.55.55,0,0,1,.19-.44.92.92,0,0,1,.62-.17H255v-2a3.74,3.74,0,0,1-.89.41,3.25,3.25,0,0,1-.92.13,3.11,3.11,0,0,1-1.93-.64,2.37,2.37,0,0,1-1-2,2.63,2.63,0,0,1,.86-1.92,3,3,0,0,1,2.11-.83,2.89,2.89,0,0,1,.92.14,2.94,2.94,0,0,1,.87.43v-.41h1.41a.89.89,0,0,1,.61.16.55.55,0,0,1,.19.44.57.57,0,0,1-.18.43.92.92,0,0,1-.62.17Zm-1.2,1.39a1.53,1.53,0,0,0-.2-.64,1.65,1.65,0,0,0-.61-.65,1.83,1.83,0,0,0-1-.26,1.68,1.68,0,0,0-1.42.67,1.48,1.48,0,0,0-.36.89,1.27,1.27,0,0,0,.51.94,2,2,0,0,0,2.54,0A1.28,1.28,0,0,0,255,101.87Z"
     id="path55" />
  <path
     d="M258.65,107.89h1.53a.4.4,0,0,1,.24-.1.33.33,0,0,1,.26.1.59.59,0,0,1,.09.37v.33h-3.19v-.74a27.14,27.14,0,0,0,2.29-2,.7.7,0,0,0,.2-.43.59.59,0,0,0-.23-.45.83.83,0,0,0-.59-.2.91.91,0,0,0-.63.22.71.71,0,0,0-.21.34.36.36,0,0,1-.13.21.35.35,0,0,1-.21.06.37.37,0,0,1-.24-.1.34.34,0,0,1-.11-.24,1.08,1.08,0,0,1,.19-.51,1.41,1.41,0,0,1,.55-.5,1.8,1.8,0,0,1,.8-.18,1.49,1.49,0,0,1,1.08.4,1.3,1.3,0,0,1,.43,1,1.26,1.26,0,0,1-.13.54,2.83,2.83,0,0,1-.58.68C259.82,106.88,259.35,107.3,258.65,107.89Z"
     id="path56" />
  <path
     d="M264.27,108.59v-.16a2.48,2.48,0,0,1-.58.21,3.15,3.15,0,0,1-.57.07,1.36,1.36,0,0,1-.92-.3.85.85,0,0,1-.35-.66,1.06,1.06,0,0,1,.45-.82,1.87,1.87,0,0,1,1.24-.38,5.24,5.24,0,0,1,.73.07v-.17a.29.29,0,0,0-.13-.25.9.9,0,0,0-.52-.1,3.6,3.6,0,0,0-.8.12,1.35,1.35,0,0,1-.29,0,.34.34,0,0,1-.24-.11.35.35,0,0,1-.09-.25.41.41,0,0,1,0-.16.32.32,0,0,1,.1-.1,1,1,0,0,1,.25-.1l.53-.11a3,3,0,0,1,.49,0,1.58,1.58,0,0,1,1,.28.92.92,0,0,1,.36.77v1.44h.12a.5.5,0,0,1,.36.1.3.3,0,0,1,.11.25.28.28,0,0,1-.11.25.5.5,0,0,1-.36.1Zm0-1.25a3.66,3.66,0,0,0-.77-.08,1.36,1.36,0,0,0-.74.2c-.12.09-.19.18-.19.27a.18.18,0,0,0,.09.16.82.82,0,0,0,.47.12,2.26,2.26,0,0,0,1.14-.37Z"
     id="path57" />
  <path
     d="M382.09,37v2.69a3.83,3.83,0,0,1,.89-.43,3.21,3.21,0,0,1,.92-.14A2.86,2.86,0,0,1,386,40a2.82,2.82,0,0,1,.87,2.08,2.58,2.58,0,0,1-.83,1.95,3,3,0,0,1-2.18.78,3.46,3.46,0,0,1-.92-.12,3.85,3.85,0,0,1-.86-.37v.3h-1.41a.92.92,0,0,1-.62-.17.57.57,0,0,1-.18-.44.57.57,0,0,1,.18-.43.94.94,0,0,1,.62-.17h.2V38.2h-.2a.92.92,0,0,1-.62-.17.57.57,0,0,1-.18-.44.57.57,0,0,1,.18-.43.92.92,0,0,1,.62-.16Zm3.59,5.09a1.75,1.75,0,0,0-.52-1.26,1.77,1.77,0,0,0-1.28-.51,1.75,1.75,0,0,0-1.27.51,1.69,1.69,0,0,0-.52,1.25,1.39,1.39,0,0,0,.46,1.08,2.27,2.27,0,0,0,2.66,0A1.39,1.39,0,0,0,385.68,42.09Z"
     id="path58" />
  <path
     d="M392,40.08a.78.78,0,0,1-.24.57,1.08,1.08,0,0,1-1.33,0,.78.78,0,0,1-.24-.57.75.75,0,0,1,.24-.57,1.08,1.08,0,0,1,1.33,0A.75.75,0,0,1,392,40.08ZM392,44a.75.75,0,0,1-.24.57.93.93,0,0,1-.66.23,1,1,0,0,1-.67-.23.8.8,0,0,1,0-1.14,1,1,0,0,1,.67-.23.93.93,0,0,1,.66.23A.75.75,0,0,1,392,44Z"
     id="path59" />
  <path
     d="M397,37v2.69a3.83,3.83,0,0,1,.89-.43,3.26,3.26,0,0,1,.92-.14,3,3,0,0,1,3,2.94,2.57,2.57,0,0,1-.82,1.95,3.07,3.07,0,0,1-2.18.78,3.59,3.59,0,0,1-.93-.12,4.06,4.06,0,0,1-.86-.37v.3h-1.41a.94.94,0,0,1-.62-.17.57.57,0,0,1-.18-.44.54.54,0,0,1,.19-.43.91.91,0,0,1,.61-.17h.21V38.2h-.21a.94.94,0,0,1-.62-.17.57.57,0,0,1-.18-.44.57.57,0,0,1,.18-.43.94.94,0,0,1,.62-.16Zm3.59,5.09a1.71,1.71,0,0,0-.52-1.26,1.85,1.85,0,0,0-2.55,0,1.69,1.69,0,0,0-.52,1.25,1.36,1.36,0,0,0,.47,1.08,1.86,1.86,0,0,0,1.32.43,1.9,1.9,0,0,0,1.33-.43A1.39,1.39,0,0,0,400.56,42.09Z"
     id="path60" />
  <path
     d="M408.4,37.15l-3.85,8.3a1.52,1.52,0,0,1-.26.41.61.61,0,0,1-.37.12.58.58,0,0,1-.43-.18.53.53,0,0,1-.18-.4,1.32,1.32,0,0,1,.14-.46l3.87-8.29a1.14,1.14,0,0,1,.25-.4.56.56,0,0,1,.37-.13.54.54,0,0,1,.42.18.51.51,0,0,1,.18.39A1.26,1.26,0,0,1,408.4,37.15Z"
     id="path61" />
  <path
     d="M416.15,40.48V45.9h.21a.89.89,0,0,1,.61.17.55.55,0,0,1,.19.44.57.57,0,0,1-.18.43.92.92,0,0,1-.62.16h-2.12a.92.92,0,0,1-.62-.16.54.54,0,0,1-.19-.43.55.55,0,0,1,.19-.44.92.92,0,0,1,.62-.17H415v-2a3.74,3.74,0,0,1-.89.41,3.25,3.25,0,0,1-.92.13,3.11,3.11,0,0,1-1.93-.64,2.37,2.37,0,0,1-1-2,2.63,2.63,0,0,1,.86-1.92,3,3,0,0,1,2.11-.83,2.89,2.89,0,0,1,.92.14,2.94,2.94,0,0,1,.87.43v-.41h1.41a.89.89,0,0,1,.61.16.55.55,0,0,1,.19.44.57.57,0,0,1-.18.43.92.92,0,0,1-.62.17ZM415,41.87a1.53,1.53,0,0,0-.2-.64,1.65,1.65,0,0,0-.61-.65,1.83,1.83,0,0,0-1-.26,1.68,1.68,0,0,0-1.42.67,1.48,1.48,0,0,0-.36.89,1.27,1.27,0,0,0,.51.94,2,2,0,0,0,2.54,0A1.28,1.28,0,0,0,415,41.87Z"
     id="path62" />
  <path
     d="M420.3,46.25a1.45,1.45,0,0,1,.47.49,1.3,1.3,0,0,1,.15.63,1.24,1.24,0,0,1-.79,1.16,2.61,2.61,0,0,1-1,.16,2.34,2.34,0,0,1-1.22-.25.39.39,0,0,1-.23-.34.33.33,0,0,1,.1-.25.32.32,0,0,1,.24-.11.35.35,0,0,1,.21.07,1,1,0,0,0,.28.14,2.86,2.86,0,0,0,.56,0,1.81,1.81,0,0,0,.89-.16.48.48,0,0,0,.27-.44.63.63,0,0,0-.16-.42,1,1,0,0,0-.42-.31,1.76,1.76,0,0,0-.52-.08.42.42,0,0,1-.27-.11.36.36,0,0,1-.09-.24.35.35,0,0,1,.1-.26.38.38,0,0,1,.26-.1h.37a.72.72,0,0,0,.27-.09.58.58,0,0,0,.23-.21.5.5,0,0,0,.08-.27.48.48,0,0,0-.2-.38.9.9,0,0,0-.59-.16,1,1,0,0,0-.77.29.4.4,0,0,1-.13.11.38.38,0,0,1-.16,0,.34.34,0,0,1-.24-.11.32.32,0,0,1-.1-.25.59.59,0,0,1,.31-.46,2,2,0,0,1,1.14-.32,1.46,1.46,0,0,1,1.05.37,1.17,1.17,0,0,1,.39.89,1.08,1.08,0,0,1-.12.5A1.17,1.17,0,0,1,420.3,46.25Z"
     id="path63" />
  <path
     d="M422.76,44.16v1.57a2.26,2.26,0,0,1,.52-.25,2,2,0,0,1,.54-.08,1.71,1.71,0,0,1,1.23.5,1.62,1.62,0,0,1,.5,1.21,1.51,1.51,0,0,1-.48,1.14,1.78,1.78,0,0,1-1.27.46,2,2,0,0,1-.54-.08,2.41,2.41,0,0,1-.5-.21v.17h-.82a.5.5,0,0,1-.36-.1.34.34,0,0,1,0-.5.5.5,0,0,1,.36-.1h.12v-3h-.12a.5.5,0,0,1-.36-.1.34.34,0,0,1,0-.5.5.5,0,0,1,.36-.1Zm2.09,3a1,1,0,0,0-.3-.73,1,1,0,0,0-.74-.3,1,1,0,0,0-.75.3,1,1,0,0,0-.3.72.84.84,0,0,0,.27.64,1.16,1.16,0,0,0,.78.24,1.13,1.13,0,0,0,.77-.24A.83.83,0,0,0,424.85,47.13Z"
     id="path64" />
  <path
     d="M384.68,104.6v-.29a3.88,3.88,0,0,1-1,.36,4.74,4.74,0,0,1-1,.12,2.38,2.38,0,0,1-1.58-.51,1.48,1.48,0,0,1-.6-1.13,1.83,1.83,0,0,1,.77-1.4,3.19,3.19,0,0,1,2.13-.65,8.71,8.71,0,0,1,1.26.11v-.28a.53.53,0,0,0-.23-.44,1.62,1.62,0,0,0-.88-.17,5.93,5.93,0,0,0-1.38.21,2.49,2.49,0,0,1-.5.08.52.52,0,0,1-.4-.18.57.57,0,0,1-.17-.44.53.53,0,0,1,.06-.26.4.4,0,0,1,.16-.18,1.66,1.66,0,0,1,.44-.16,7,7,0,0,1,.91-.2,5.27,5.27,0,0,1,.84-.07,2.76,2.76,0,0,1,1.73.48,1.56,1.56,0,0,1,.62,1.32v2.47h.21a.94.94,0,0,1,.62.17.57.57,0,0,1,.18.44.57.57,0,0,1-.18.43.94.94,0,0,1-.62.17Zm0-2.15a6.53,6.53,0,0,0-1.33-.15,2.17,2.17,0,0,0-1.26.36.62.62,0,0,0-.33.46.33.33,0,0,0,.16.28,1.44,1.44,0,0,0,.8.19,3.21,3.21,0,0,0,1-.17,3.34,3.34,0,0,0,1-.46Z"
     id="path65" />
  <path
     d="M392,100.08a.78.78,0,0,1-.24.57,1.08,1.08,0,0,1-1.33,0,.78.78,0,0,1-.24-.57.75.75,0,0,1,.24-.57,1.08,1.08,0,0,1,1.33,0A.75.75,0,0,1,392,100.08Zm0,3.93a.75.75,0,0,1-.24.57.93.93,0,0,1-.66.23,1,1,0,0,1-.67-.23.8.8,0,0,1,0-1.14,1,1,0,0,1,.67-.23.93.93,0,0,1,.66.23A.75.75,0,0,1,392,104Z"
     id="path66" />
  <path
     d="M399.56,104.6v-.29a3.88,3.88,0,0,1-1,.36,4.59,4.59,0,0,1-1,.12,2.33,2.33,0,0,1-1.57-.51,1.49,1.49,0,0,1-.61-1.13,1.83,1.83,0,0,1,.77-1.4,3.19,3.19,0,0,1,2.13-.65,8.71,8.71,0,0,1,1.26.11v-.28a.5.5,0,0,0-.23-.44,1.62,1.62,0,0,0-.88-.17,6,6,0,0,0-1.38.21,2.41,2.41,0,0,1-.49.08.54.54,0,0,1-.41-.18A.6.6,0,0,1,396,100a.53.53,0,0,1,.06-.26.4.4,0,0,1,.16-.18,1.66,1.66,0,0,1,.44-.16,7,7,0,0,1,.91-.2,5.27,5.27,0,0,1,.84-.07,2.77,2.77,0,0,1,1.74.48,1.59,1.59,0,0,1,.62,1.32v2.47h.2a.92.92,0,0,1,.62.17.57.57,0,0,1,.18.44.57.57,0,0,1-.18.43.92.92,0,0,1-.62.17Zm0-2.15a6.53,6.53,0,0,0-1.33-.15,2.22,2.22,0,0,0-1.26.36.63.63,0,0,0-.32.46.32.32,0,0,0,.15.28,1.47,1.47,0,0,0,.81.19,3.16,3.16,0,0,0,1-.17,3.34,3.34,0,0,0,1-.46Z"
     id="path67" />
  <path
     d="M408.4,97.15l-3.85,8.3a1.52,1.52,0,0,1-.26.41.61.61,0,0,1-.37.12.58.58,0,0,1-.43-.18.53.53,0,0,1-.18-.4,1.32,1.32,0,0,1,.14-.46l3.87-8.29a1.14,1.14,0,0,1,.25-.4.56.56,0,0,1,.37-.13.54.54,0,0,1,.42.18.51.51,0,0,1,.18.39A1.26,1.26,0,0,1,408.4,97.15Z"
     id="path68" />
  <path
     d="M416.15,100.48v5.42h.21a.89.89,0,0,1,.61.17.55.55,0,0,1,.19.44.57.57,0,0,1-.18.43.92.92,0,0,1-.62.16h-2.12a.92.92,0,0,1-.62-.16.54.54,0,0,1-.19-.43.55.55,0,0,1,.19-.44.92.92,0,0,1,.62-.17H415v-2a3.74,3.74,0,0,1-.89.41,3.25,3.25,0,0,1-.92.13,3.11,3.11,0,0,1-1.93-.64,2.37,2.37,0,0,1-1-2,2.63,2.63,0,0,1,.86-1.92,3,3,0,0,1,2.11-.83,2.89,2.89,0,0,1,.92.14,2.94,2.94,0,0,1,.87.43v-.41h1.41a.89.89,0,0,1,.61.16.55.55,0,0,1,.19.44.57.57,0,0,1-.18.43.92.92,0,0,1-.62.17Zm-1.2,1.39a1.53,1.53,0,0,0-.2-.64,1.65,1.65,0,0,0-.61-.65,1.83,1.83,0,0,0-1-.26,1.68,1.68,0,0,0-1.42.67,1.48,1.48,0,0,0-.36.89,1.27,1.27,0,0,0,.51.94,2,2,0,0,0,2.54,0A1.28,1.28,0,0,0,415,101.87Z"
     id="path69" />
  <path
     d="M420.3,106.25a1.45,1.45,0,0,1,.47.49,1.3,1.3,0,0,1,.15.63,1.24,1.24,0,0,1-.79,1.16,2.61,2.61,0,0,1-1,.16,2.34,2.34,0,0,1-1.22-.25.39.39,0,0,1-.23-.34.33.33,0,0,1,.1-.25.32.32,0,0,1,.24-.11.35.35,0,0,1,.21.07,1,1,0,0,0,.28.14,2.86,2.86,0,0,0,.56,0,1.81,1.81,0,0,0,.89-.16.48.48,0,0,0,.27-.44.63.63,0,0,0-.16-.42,1,1,0,0,0-.42-.31,1.76,1.76,0,0,0-.52-.08.42.42,0,0,1-.27-.11.36.36,0,0,1-.09-.24.35.35,0,0,1,.1-.26.38.38,0,0,1,.26-.1h.37a.72.72,0,0,0,.27-.09.58.58,0,0,0,.23-.21.5.5,0,0,0,.08-.27.48.48,0,0,0-.2-.38.9.9,0,0,0-.59-.16,1,1,0,0,0-.77.29.4.4,0,0,1-.13.11.38.38,0,0,1-.16,0,.34.34,0,0,1-.24-.11.32.32,0,0,1-.1-.25.59.59,0,0,1,.31-.46,2,2,0,0,1,1.14-.32,1.46,1.46,0,0,1,1.05.37,1.17,1.17,0,0,1,.39.89,1.08,1.08,0,0,1-.12.5A1.17,1.17,0,0,1,420.3,106.25Z"
     id="path70" />
  <path
     d="M424.27,108.59v-.16a2.48,2.48,0,0,1-.58.21,3.15,3.15,0,0,1-.57.07,1.36,1.36,0,0,1-.92-.3.85.85,0,0,1-.35-.66,1.06,1.06,0,0,1,.45-.82,1.87,1.87,0,0,1,1.24-.38,5.24,5.24,0,0,1,.73.07v-.17a.29.29,0,0,0-.13-.25.9.9,0,0,0-.52-.1,3.6,3.6,0,0,0-.8.12,1.35,1.35,0,0,1-.29,0,.34.34,0,0,1-.24-.11.35.35,0,0,1-.09-.25.41.41,0,0,1,0-.16.32.32,0,0,1,.1-.1,1,1,0,0,1,.25-.1l.53-.11a3,3,0,0,1,.49,0,1.58,1.58,0,0,1,1,.28.92.92,0,0,1,.36.77v1.44h.12a.5.5,0,0,1,.36.1.3.3,0,0,1,.11.25.28.28,0,0,1-.11.25.5.5,0,0,1-.36.1Zm0-1.25a3.66,3.66,0,0,0-.77-.08,1.36,1.36,0,0,0-.74.2c-.12.09-.19.18-.19.27a.18.18,0,0,0,.09.16.82.82,0,0,0,.47.12,2.26,2.26,0,0,0,1.14-.37Z"
     id="path71" />
  <path
     d="M563.52,21.28v1.18H563a3,3,0,0,0-1.16.17c-.27.11-.41.25-.41.42s.11.24.31.36a1.9,1.9,0,0,0,.92.18,4.07,4.07,0,0,0,1.27-.24,1.92,1.92,0,0,1,.46-.1.66.66,0,0,1,.49.19.54.54,0,0,1,.19.41c0,.27-.24.5-.72.68a5.15,5.15,0,0,1-1.72.26,2.68,2.68,0,0,1-1.76-.52,1.51,1.51,0,0,1-.64-1.22,1.54,1.54,0,0,1,.73-1.3,1.27,1.27,0,0,1-.62-1,1.43,1.43,0,0,1,.58-1.11,2.48,2.48,0,0,1,1.62-.48,2.82,2.82,0,0,1,1.37.35.63.63,0,0,1,.55-.35c.4,0,.6.23.6.71v.31l0,.57a.61.61,0,0,1-.19.5.63.63,0,0,1-.42.16.68.68,0,0,1-.51-.31,1.84,1.84,0,0,0-1.5-.74,1.37,1.37,0,0,0-.67.13c-.16.08-.23.18-.23.3,0,.35.48.53,1.45.53Z"
     id="path72" />
  <path
     d="M572.48,17.15l-3.85,8.3a1.29,1.29,0,0,1-.27.41A.57.57,0,0,1,568,26a.58.58,0,0,1-.42-.18.53.53,0,0,1-.18-.4,1.32,1.32,0,0,1,.14-.46l3.86-8.29a1.29,1.29,0,0,1,.26-.4.54.54,0,0,1,.37-.13.58.58,0,0,1,.42.18.51.51,0,0,1,.18.39A1.26,1.26,0,0,1,572.48,17.15Z"
     id="path73" />
  <path
     d="M580.06,20.14v1.32a4.15,4.15,0,0,1-.67,2.24,2.17,2.17,0,0,1-1.94,1.07,2.21,2.21,0,0,1-1.23-.32,3,3,0,0,1-1-1.18,3.81,3.81,0,0,1-.44-1.81V20.14a4.12,4.12,0,0,1,.67-2.24,2.14,2.14,0,0,1,1.93-1.08,2.24,2.24,0,0,1,1.22.32,3,3,0,0,1,1,1.17A3.87,3.87,0,0,1,580.06,20.14Zm-1.2,0a2.78,2.78,0,0,0-.55-1.71,1,1,0,0,0-.87-.41,1.08,1.08,0,0,0-.89.45,2.62,2.62,0,0,0-.52,1.67v1.32a2.76,2.76,0,0,0,.55,1.71,1,1,0,0,0,.87.4,1.06,1.06,0,0,0,.88-.45,2.6,2.6,0,0,0,.53-1.66Z"
     id="path74" />
  <path
     d="M563.52,121.28v1.18H563a3,3,0,0,0-1.16.17c-.27.11-.41.25-.41.42s.11.24.31.36a1.9,1.9,0,0,0,.92.18,4.07,4.07,0,0,0,1.27-.24,1.92,1.92,0,0,1,.46-.1.66.66,0,0,1,.49.19.54.54,0,0,1,.19.41c0,.27-.24.5-.72.68a5.15,5.15,0,0,1-1.72.26,2.68,2.68,0,0,1-1.76-.52,1.51,1.51,0,0,1-.64-1.22,1.54,1.54,0,0,1,.73-1.3,1.27,1.27,0,0,1-.62-1,1.43,1.43,0,0,1,.58-1.11,2.48,2.48,0,0,1,1.62-.48,2.82,2.82,0,0,1,1.37.35.63.63,0,0,1,.55-.35c.4,0,.6.23.6.71v.31l0,.57a.61.61,0,0,1-.19.5.63.63,0,0,1-.42.16.68.68,0,0,1-.51-.31,1.84,1.84,0,0,0-1.5-.74,1.37,1.37,0,0,0-.67.13c-.16.08-.23.18-.23.3,0,.35.48.53,1.45.53Z"
     id="path75" />
  <path
     d="M572.48,117.15l-3.85,8.3a1.29,1.29,0,0,1-.27.41.57.57,0,0,1-.37.12.58.58,0,0,1-.42-.18.53.53,0,0,1-.18-.4,1.32,1.32,0,0,1,.14-.46l3.86-8.29a1.29,1.29,0,0,1,.26-.4.54.54,0,0,1,.37-.13.58.58,0,0,1,.42.18.51.51,0,0,1,.18.39A1.26,1.26,0,0,1,572.48,117.15Z"
     id="path76" />
  <path
     d="M580.06,120.14v1.32a4.15,4.15,0,0,1-.67,2.24,2.17,2.17,0,0,1-1.94,1.07,2.21,2.21,0,0,1-1.23-.32,3,3,0,0,1-1-1.18,3.81,3.81,0,0,1-.44-1.81v-1.32a4.12,4.12,0,0,1,.67-2.24,2.14,2.14,0,0,1,1.93-1.08,2.24,2.24,0,0,1,1.22.32,3,3,0,0,1,1,1.17A3.87,3.87,0,0,1,580.06,120.14Zm-1.2,0a2.78,2.78,0,0,0-.55-1.71,1,1,0,0,0-.87-.41,1.08,1.08,0,0,0-.89.45,2.62,2.62,0,0,0-.52,1.67v1.32a2.76,2.76,0,0,0,.55,1.71,1,1,0,0,0,.87.4,1.06,1.06,0,0,0,.88-.45,2.6,2.6,0,0,0,.53-1.66Z"
     id="path77" />
  <path
     d="M382.09,117v2.69a3.83,3.83,0,0,1,.89-.43,3.21,3.21,0,0,1,.92-.14A2.86,2.86,0,0,1,386,120a2.82,2.82,0,0,1,.87,2.08,2.58,2.58,0,0,1-.83,2,3,3,0,0,1-2.18.78,3.46,3.46,0,0,1-.92-.12,3.85,3.85,0,0,1-.86-.37v.3h-1.41a.92.92,0,0,1-.62-.17.57.57,0,0,1-.18-.44.57.57,0,0,1,.18-.43.94.94,0,0,1,.62-.17h.2V118.2h-.2a.92.92,0,0,1-.62-.17.57.57,0,0,1-.18-.44.57.57,0,0,1,.18-.43.92.92,0,0,1,.62-.16Zm3.59,5.09a1.75,1.75,0,0,0-.52-1.26,1.77,1.77,0,0,0-1.28-.51,1.75,1.75,0,0,0-1.27.51,1.69,1.69,0,0,0-.52,1.25,1.39,1.39,0,0,0,.46,1.08,2.27,2.27,0,0,0,2.66,0A1.39,1.39,0,0,0,385.68,122.09Z"
     id="path78" />
  <path
     d="M392,120.08a.78.78,0,0,1-.24.57,1.08,1.08,0,0,1-1.33,0,.78.78,0,0,1-.24-.57.75.75,0,0,1,.24-.57,1.08,1.08,0,0,1,1.33,0A.75.75,0,0,1,392,120.08Zm0,3.93a.75.75,0,0,1-.24.57.93.93,0,0,1-.66.23,1,1,0,0,1-.67-.23.8.8,0,0,1,0-1.14,1,1,0,0,1,.67-.23.93.93,0,0,1,.66.23A.75.75,0,0,1,392,124Z"
     id="path79" />
  <path
     d="M397,117v2.69a3.83,3.83,0,0,1,.89-.43,3.26,3.26,0,0,1,.92-.14,3,3,0,0,1,3,2.94,2.57,2.57,0,0,1-.82,2,3.07,3.07,0,0,1-2.18.78,3.59,3.59,0,0,1-.93-.12,4.06,4.06,0,0,1-.86-.37v.3h-1.41a.94.94,0,0,1-.62-.17.57.57,0,0,1-.18-.44.54.54,0,0,1,.19-.43.91.91,0,0,1,.61-.17h.21V118.2h-.21a.94.94,0,0,1-.62-.17.57.57,0,0,1-.18-.44.57.57,0,0,1,.18-.43.94.94,0,0,1,.62-.16Zm3.59,5.09a1.71,1.71,0,0,0-.52-1.26,1.85,1.85,0,0,0-2.55,0,1.69,1.69,0,0,0-.52,1.25,1.36,1.36,0,0,0,.47,1.08,1.86,1.86,0,0,0,1.32.43,1.9,1.9,0,0,0,1.33-.43A1.39,1.39,0,0,0,400.56,122.09Z"
     id="path80" />
  <path
     d="M408.4,117.15l-3.85,8.3a1.52,1.52,0,0,1-.26.41.61.61,0,0,1-.37.12.58.58,0,0,1-.43-.18.53.53,0,0,1-.18-.4,1.32,1.32,0,0,1,.14-.46l3.87-8.29a1.14,1.14,0,0,1,.25-.4.56.56,0,0,1,.37-.13.54.54,0,0,1,.42.18.51.51,0,0,1,.18.39A1.26,1.26,0,0,1,408.4,117.15Z"
     id="path81" />
  <path
     d="M416.15,120.48v5.42h.21a.89.89,0,0,1,.61.17.55.55,0,0,1,.19.44.57.57,0,0,1-.18.43.92.92,0,0,1-.62.16h-2.12a.92.92,0,0,1-.62-.16.54.54,0,0,1-.19-.43.55.55,0,0,1,.19-.44.92.92,0,0,1,.62-.17H415v-2a3.74,3.74,0,0,1-.89.41,3.25,3.25,0,0,1-.92.13,3.11,3.11,0,0,1-1.93-.64,2.37,2.37,0,0,1-1-2,2.63,2.63,0,0,1,.86-1.92,3,3,0,0,1,2.11-.83,2.89,2.89,0,0,1,.92.14,2.94,2.94,0,0,1,.87.43v-.41h1.41a.89.89,0,0,1,.61.16.55.55,0,0,1,.19.44.57.57,0,0,1-.18.43.92.92,0,0,1-.62.17Zm-1.2,1.39a1.53,1.53,0,0,0-.2-.64,1.65,1.65,0,0,0-.61-.65,1.83,1.83,0,0,0-1-.26,1.68,1.68,0,0,0-1.42.67,1.48,1.48,0,0,0-.36.89,1.27,1.27,0,0,0,.51.94,2,2,0,0,0,2.54,0A1.28,1.28,0,0,0,415,121.87Z"
     id="path82" />
  <path
     d="M420.3,126.25a1.45,1.45,0,0,1,.47.49,1.3,1.3,0,0,1,.15.63,1.24,1.24,0,0,1-.79,1.16,2.61,2.61,0,0,1-1,.16,2.34,2.34,0,0,1-1.22-.25.39.39,0,0,1-.23-.34.33.33,0,0,1,.1-.25.32.32,0,0,1,.24-.11.35.35,0,0,1,.21.07,1,1,0,0,0,.28.14,2.86,2.86,0,0,0,.56,0,1.81,1.81,0,0,0,.89-.16.48.48,0,0,0,.27-.44.63.63,0,0,0-.16-.42,1,1,0,0,0-.42-.31,1.76,1.76,0,0,0-.52-.08.42.42,0,0,1-.27-.11.36.36,0,0,1-.09-.24.35.35,0,0,1,.1-.26.38.38,0,0,1,.26-.1h.37a.72.72,0,0,0,.27-.09.58.58,0,0,0,.23-.21.5.5,0,0,0,.08-.27.48.48,0,0,0-.2-.38.9.9,0,0,0-.59-.16,1,1,0,0,0-.77.29.4.4,0,0,1-.13.11.38.38,0,0,1-.16,0,.34.34,0,0,1-.24-.11.32.32,0,0,1-.1-.25.59.59,0,0,1,.31-.46,2,2,0,0,1,1.14-.32,1.46,1.46,0,0,1,1.05.37,1.17,1.17,0,0,1,.39.89,1.08,1.08,0,0,1-.12.5A1.17,1.17,0,0,1,420.3,126.25Z"
     id="path83" />
  <path
     d="M422.76,124.16v1.57a2.26,2.26,0,0,1,.52-.25,2,2,0,0,1,.54-.08,1.71,1.71,0,0,1,1.23.5,1.62,1.62,0,0,1,.5,1.21,1.51,1.51,0,0,1-.48,1.14,1.78,1.78,0,0,1-1.27.46,2,2,0,0,1-.54-.08,2.41,2.41,0,0,1-.5-.21v.17h-.82a.5.5,0,0,1-.36-.1.34.34,0,0,1,0-.5.5.5,0,0,1,.36-.1h.12v-3h-.12a.5.5,0,0,1-.36-.1.34.34,0,0,1,0-.5.5.5,0,0,1,.36-.1Zm2.09,3a1,1,0,0,0-.3-.73,1,1,0,0,0-.74-.3,1,1,0,0,0-.75.3,1,1,0,0,0-.3.72.84.84,0,0,0,.27.64,1.16,1.16,0,0,0,.78.24,1.13,1.13,0,0,0,.77-.24A.83.83,0,0,0,424.85,127.13Z"
     id="path84" />
  <path
     d="M432,121.74h-5v-1.1h5Z"
     id="path85" />
  <path
     d="M434.4,123.39l1.81-3.64-.83-1.55h-.54c-.53,0-.8-.2-.8-.6s.27-.6.8-.6h1.24l3.47,6.39q.81,0,.81.6c0,.4-.27.61-.81.61h-1.19c-.53,0-.8-.21-.8-.61s.21-.56.62-.6L436.9,121l-1.17,2.36c.43,0,.64.23.64.6s-.27.61-.8.61h-1.16c-.54,0-.8-.21-.8-.61S433.87,123.39,434.4,123.39Z"
     id="path86" />
  <circle
     class="cls-1"
     cx="190"
     cy="110"
     r="20"
     id="circle86" />
  <circle
     class="cls-1"
     cx="350"
     cy="30"
     r="20"
     id="circle87" />
  <circle
     class="cls-1"
     cx="350"
     cy="110"
     r="20"
     id="circle88" />
  <circle
     class="cls-1"
     cx="510"
     cy="30"
     r="20"
     id="circle89" />
  <circle
     class="cls-1"
     cx="510"
     cy="110"
     r="20"
     id="circle90" />
  <line
     x1="206.65"
     y1="98.9"
     x2="333.45"
     y2="41.1"
     id="line90" />
  <line
     class="cls-2"
     x1="206.65"
     y1="98.9"
     x2="327.03"
     y2="44.03"
     id="line91" />
  <polygon
     points="333.45 41.1 326.09 48.93 326.55 44.25 322.71 41.53 333.45 41.1"
     id="polygon91" />
  <line
     class="cls-2"
     x1="210"
     y1="110"
     x2="322.94"
     y2="110"
     id="line92" />
  <polygon
     points="330 110 320.05 114.06 322.41 110 320.05 105.94 330 110"
     id="polygon92" />
  <line
     class="cls-2"
     x1="210"
     y1="30"
     x2="322.94"
     y2="30"
     id="line93" />
  <polygon
     points="330 30 320.05 34.06 322.41 30 320.05 25.94 330 30"
     id="polygon93" />
  <line
     class="cls-2"
     x1="370"
     y1="30"
     x2="482.94"
     y2="30"
     id="line94" />
  <polygon
     points="490 30 480.05 34.06 482.41 30 480.05 25.94 490 30"
     id="polygon94" />
  <line
     x1="366.65"
     y1="98.9"
     x2="492.83"
     y2="41.1"
     id="line95" />
  <line
     class="cls-2"
     x1="366.65"
     y1="98.9"
     x2="486.41"
     y2="44.04"
     id="line96" />
  <polygon
     points="492.83 41.1 485.47 48.94 485.93 44.26 482.09 41.55 492.83 41.1"
     id="polygon96" />
  <line
     class="cls-2"
     x1="370"
     y1="110"
     x2="482.94"
     y2="110"
     id="line97" />
  <polygon
     points="490 110 480.05 114.06 482.41 110 480.05 105.94 490 110"
     id="polygon97" />
  <line
     x1="366.65"
     y1="41.1"
     x2="492.83"
     y2="98.9"
     id="line98" />
  <line
     class="cls-2"
     x1="366.65"
     y1="41.1"
     x2="486.41"
     y2="95.96"
     id="line99" />
  <polygon
     points="492.83 98.9 482.09 98.45 485.93 95.74 485.47 91.06 492.83 98.9"
     id="polygon99" />
  <line
     x1="206.65"
     y1="41.1"
     x2="333.45"
     y2="98.9"
     id="line100" />
  <line
     class="cls-2"
     x1="206.65"
     y1="41.1"
     x2="327.03"
     y2="95.97"
     id="line101" />
  <polygon
     points="333.45 98.9 322.71 98.47 326.55 95.75 326.08 91.07 333.45 98.9"
     id="polygon101" />
  <path
     d="M185.86,104.76v8.77h1.61a1.23,1.23,0,0,1,.83.22.82.82,0,0,1,0,1.16,1.29,1.29,0,0,1-.83.22h-4.83a1.29,1.29,0,0,1-.83-.22.78.78,0,0,1-.24-.59.75.75,0,0,1,.24-.57,1.23,1.23,0,0,1,.83-.22h1.61v-6.68l-1.43.37a2.44,2.44,0,0,1-.51.1.72.72,0,0,1-.53-.25.83.83,0,0,1-.22-.59.72.72,0,0,1,.16-.5,1.46,1.46,0,0,1,.69-.33Z"
     id="path101" />
  <path
     d="M192.94,105v3.59a4.84,4.84,0,0,1,1.19-.58,4.32,4.32,0,0,1,1.23-.19,3.89,3.89,0,0,1,2.82,1.15,3.77,3.77,0,0,1,1.15,2.78,3.43,3.43,0,0,1-1.1,2.59,4,4,0,0,1-2.91,1,4.62,4.62,0,0,1-1.23-.17,5,5,0,0,1-1.15-.48v.39h-1.87a1.29,1.29,0,0,1-.83-.22.78.78,0,0,1-.24-.59.72.72,0,0,1,.25-.57,1.2,1.2,0,0,1,.82-.22h.27V106.6h-.27a1.23,1.23,0,0,1-.83-.23.74.74,0,0,1-.24-.58.75.75,0,0,1,.24-.57,1.23,1.23,0,0,1,.83-.22Zm4.79,6.79a2.29,2.29,0,0,0-.69-1.68,2.35,2.35,0,0,0-1.71-.69,2.31,2.31,0,0,0-1.69.69,2.23,2.23,0,0,0-.7,1.66,1.86,1.86,0,0,0,.63,1.45,2.5,2.5,0,0,0,1.76.56,2.54,2.54,0,0,0,1.77-.56A1.84,1.84,0,0,0,197.73,111.79Z"
     id="path102" />
  <path
     d="M343.54,33.53h3.51a.88.88,0,0,1,.55-.24.74.74,0,0,1,.58.24,1.29,1.29,0,0,1,.21.83v.77H341.1v-1.7a62,62,0,0,0,5.22-4.59,1.53,1.53,0,0,0,.46-1,1.36,1.36,0,0,0-.51-1,2,2,0,0,0-1.37-.45,2.11,2.11,0,0,0-1.43.5,1.83,1.83,0,0,0-.47.79,1,1,0,0,1-.3.47.83.83,0,0,1-.48.14.79.79,0,0,1-.56-.23.75.75,0,0,1-.24-.55,2.38,2.38,0,0,1,.43-1.17,3.05,3.05,0,0,1,1.27-1.13,3.92,3.92,0,0,1,1.81-.42,3.47,3.47,0,0,1,2.48.92,2.93,2.93,0,0,1,1,2.22,2.71,2.71,0,0,1-.28,1.23,6.51,6.51,0,0,1-1.33,1.57C346.22,31.22,345.14,32.17,343.54,33.53Z"
     id="path103" />
  <path
     d="M356.4,35.13v-.38a4.67,4.67,0,0,1-1.33.48,5.92,5.92,0,0,1-1.32.16,3.09,3.09,0,0,1-2.09-.68,2,2,0,0,1-.8-1.51,2.45,2.45,0,0,1,1-1.87,4.27,4.27,0,0,1,2.84-.87,11,11,0,0,1,1.68.16v-.38a.69.69,0,0,0-.31-.59,2.09,2.09,0,0,0-1.17-.23,8,8,0,0,0-1.85.29,3.56,3.56,0,0,1-.65.1.71.71,0,0,1-.54-.23.82.82,0,0,1-.23-.59.72.72,0,0,1,.08-.35.64.64,0,0,1,.22-.24,2.75,2.75,0,0,1,.59-.22,11.25,11.25,0,0,1,1.21-.26,7.86,7.86,0,0,1,1.11-.1,3.68,3.68,0,0,1,2.32.65,2.1,2.1,0,0,1,.82,1.76v3.3h.28a1.2,1.2,0,0,1,.82.22.8.8,0,0,1,0,1.16,1.26,1.26,0,0,1-.82.22Zm0-2.87a9.72,9.72,0,0,0-1.77-.19,2.91,2.91,0,0,0-1.68.48.82.82,0,0,0-.44.62.41.41,0,0,0,.21.36,1.86,1.86,0,0,0,1.07.26,4.48,4.48,0,0,0,1.31-.22,5,5,0,0,0,1.3-.62Z"
     id="path104" />
  <path
     d="M343.54,113.53h3.51a.88.88,0,0,1,.55-.24.74.74,0,0,1,.58.24,1.29,1.29,0,0,1,.21.83v.77H341.1v-1.7a62,62,0,0,0,5.22-4.59,1.53,1.53,0,0,0,.46-1,1.36,1.36,0,0,0-.51-1,2,2,0,0,0-1.37-.45,2.11,2.11,0,0,0-1.43.5,1.83,1.83,0,0,0-.47.79,1,1,0,0,1-.3.47.83.83,0,0,1-.48.14.79.79,0,0,1-.56-.23.75.75,0,0,1-.24-.55,2.38,2.38,0,0,1,.43-1.17,3.05,3.05,0,0,1,1.27-1.13,3.92,3.92,0,0,1,1.81-.42,3.47,3.47,0,0,1,2.48.92,2.93,2.93,0,0,1,1,2.22,2.71,2.71,0,0,1-.28,1.23,6.51,6.51,0,0,1-1.33,1.57C346.22,111.22,345.14,112.17,343.54,113.53Z"
     id="path105" />
  <path
     d="M352.94,105v3.59a4.84,4.84,0,0,1,1.19-.58,4.32,4.32,0,0,1,1.23-.19,3.89,3.89,0,0,1,2.82,1.15,3.77,3.77,0,0,1,1.15,2.78,3.43,3.43,0,0,1-1.1,2.59,4,4,0,0,1-2.91,1,4.62,4.62,0,0,1-1.23-.17,5,5,0,0,1-1.15-.48v.39h-1.87a1.29,1.29,0,0,1-.83-.22.78.78,0,0,1-.24-.59.72.72,0,0,1,.25-.57,1.2,1.2,0,0,1,.82-.22h.27V106.6h-.27a1.23,1.23,0,0,1-.83-.23.74.74,0,0,1-.24-.58.75.75,0,0,1,.24-.57,1.23,1.23,0,0,1,.83-.22Zm4.79,6.79a2.29,2.29,0,0,0-.69-1.68,2.35,2.35,0,0,0-1.71-.69,2.31,2.31,0,0,0-1.69.69,2.23,2.23,0,0,0-.7,1.66,1.86,1.86,0,0,0,.63,1.45,2.5,2.5,0,0,0,1.76.56,2.54,2.54,0,0,0,1.77-.56A1.84,1.84,0,0,0,357.73,111.79Z"
     id="path106" />
  <path
     d="M507.32,29.78a3.25,3.25,0,0,1,1.07,1.12,2.93,2.93,0,0,1,.35,1.42,2.87,2.87,0,0,1-.47,1.58A2.91,2.91,0,0,1,506.93,35a6,6,0,0,1-2.32.37,5.32,5.32,0,0,1-2.79-.58.93.93,0,0,1-.53-.78.82.82,0,0,1,.23-.58.76.76,0,0,1,.56-.24.83.83,0,0,1,.47.16,2,2,0,0,0,.65.31,6.1,6.1,0,0,0,1.29.11,4.25,4.25,0,0,0,2-.36,1.14,1.14,0,0,0,.63-1,1.48,1.48,0,0,0-.37-.95,2.38,2.38,0,0,0-1-.71,4.2,4.2,0,0,0-1.19-.19.9.9,0,0,1-.61-.25.84.84,0,0,1,0-1.13.82.82,0,0,1,.59-.23h.85a1.71,1.71,0,0,0,.63-.2,1.33,1.33,0,0,0,.5-.47,1.14,1.14,0,0,0,.2-.63,1.09,1.09,0,0,0-.45-.87,2.07,2.07,0,0,0-1.35-.38,2.28,2.28,0,0,0-1.77.68,1.14,1.14,0,0,1-.29.25.86.86,0,0,1-.36.08.79.79,0,0,1-.8-.81,1.38,1.38,0,0,1,.72-1.05,4.45,4.45,0,0,1,2.62-.74,3.36,3.36,0,0,1,2.38.84,2.7,2.7,0,0,1,.9,2,2.53,2.53,0,0,1-.27,1.15A3.29,3.29,0,0,1,507.32,29.78Z"
     id="path107" />
  <path
     d="M516.4,35.13v-.38a4.67,4.67,0,0,1-1.33.48,5.92,5.92,0,0,1-1.32.16,3.09,3.09,0,0,1-2.09-.68,2,2,0,0,1-.8-1.51,2.45,2.45,0,0,1,1-1.87,4.27,4.27,0,0,1,2.84-.87,11,11,0,0,1,1.68.16v-.38a.69.69,0,0,0-.31-.59,2.09,2.09,0,0,0-1.17-.23,8,8,0,0,0-1.85.29,3.56,3.56,0,0,1-.65.1.71.71,0,0,1-.54-.23.82.82,0,0,1-.23-.59.72.72,0,0,1,.08-.35.64.64,0,0,1,.22-.24,2.75,2.75,0,0,1,.59-.22,11.25,11.25,0,0,1,1.21-.26,7.86,7.86,0,0,1,1.11-.1,3.68,3.68,0,0,1,2.32.65,2.1,2.1,0,0,1,.82,1.76v3.3h.28a1.2,1.2,0,0,1,.82.22.8.8,0,0,1,0,1.16,1.26,1.26,0,0,1-.82.22Zm0-2.87a9.72,9.72,0,0,0-1.77-.19,2.91,2.91,0,0,0-1.68.48.82.82,0,0,0-.44.62.41.41,0,0,0,.21.36,1.86,1.86,0,0,0,1.07.26,4.48,4.48,0,0,0,1.31-.22,5,5,0,0,0,1.3-.62Z"
     id="path108" />
  <path
     d="M507.32,109.78a3.25,3.25,0,0,1,1.07,1.12,2.93,2.93,0,0,1,.35,1.42,2.87,2.87,0,0,1-.47,1.58,2.91,2.91,0,0,1-1.34,1.09,6,6,0,0,1-2.32.37,5.32,5.32,0,0,1-2.79-.58.93.93,0,0,1-.53-.78.82.82,0,0,1,.23-.58.76.76,0,0,1,.56-.24.83.83,0,0,1,.47.16,2,2,0,0,0,.65.31,6.1,6.1,0,0,0,1.29.11,4.25,4.25,0,0,0,2-.36,1.14,1.14,0,0,0,.63-1,1.48,1.48,0,0,0-.37-1,2.38,2.38,0,0,0-1-.71,4.2,4.2,0,0,0-1.19-.19.9.9,0,0,1-.61-.25.84.84,0,0,1,0-1.13.82.82,0,0,1,.59-.23h.85a1.71,1.71,0,0,0,.63-.2,1.33,1.33,0,0,0,.5-.47,1.14,1.14,0,0,0,.2-.63,1.09,1.09,0,0,0-.45-.87,2.07,2.07,0,0,0-1.35-.38,2.28,2.28,0,0,0-1.77.68,1.14,1.14,0,0,1-.29.25.86.86,0,0,1-.36.08.79.79,0,0,1-.8-.81,1.38,1.38,0,0,1,.72-1,4.45,4.45,0,0,1,2.62-.74,3.36,3.36,0,0,1,2.38.84,2.7,2.7,0,0,1,.9,2,2.53,2.53,0,0,1-.27,1.15A3.29,3.29,0,0,1,507.32,109.78Z"
     id="path109" />
  <path
     d="M512.94,105v3.59a4.84,4.84,0,0,1,1.19-.58,4.32,4.32,0,0,1,1.23-.19,3.89,3.89,0,0,1,2.82,1.15,3.77,3.77,0,0,1,1.15,2.78,3.43,3.43,0,0,1-1.1,2.59,4,4,0,0,1-2.91,1,4.62,4.62,0,0,1-1.23-.17,5,5,0,0,1-1.15-.48v.39h-1.87a1.29,1.29,0,0,1-.83-.22.78.78,0,0,1-.24-.59.72.72,0,0,1,.25-.57,1.2,1.2,0,0,1,.82-.22h.27V106.6h-.27a1.23,1.23,0,0,1-.83-.23.74.74,0,0,1-.24-.58.75.75,0,0,1,.24-.57,1.23,1.23,0,0,1,.83-.22Zm4.79,6.79a2.29,2.29,0,0,0-.69-1.68,2.35,2.35,0,0,0-1.71-.69,2.31,2.31,0,0,0-1.69.69,2.23,2.23,0,0,0-.7,1.66,1.86,1.86,0,0,0,.63,1.45,2.5,2.5,0,0,0,1.76.56,2.54,2.54,0,0,0,1.77-.56A1.84,1.84,0,0,0,517.73,111.79Z"
     id="path110" />
  <path
     class="cls-2"
     d="M30,90c0,13.33,16.67,20,70,20h62.94"
     id="path111" />
  <polygon
     points="170 110 160.05 114.06 162.41 110 160.05 105.94 170 110"
     id="polygon111" />
  <path
     class="cls-2"
     d="M30,50c0-13.33,16.67-20,70-20h62.94"
     id="path112" />
  <polygon
     points="170 30 160.05 34.06 162.41 30 160.05 25.94 170 30"
     id="polygon112" />
  <path
     class="cls-2"
     d="M658.27,98.85C652.83,107.76,633.76,110,590,110H530"
     id="path113" />
  <polygon
     points="660 92 653.29 100.4 657.86 99.28 661.09 102.69 660 92"
     id="polygon113" />
  <path
     class="cls-2"
     d="M658.27,41.15C652.83,32.24,633.76,30,590,30H530"
     id="path114" />
  <polygon
     points="660 48 661.09 37.31 657.86 40.72 653.29 39.6 660 48"
     id="polygon114" />
  <circle
     class="cls-2"
     cx="30"
     cy="69"
     r="20"
     id="circle114" />
  <path
     d="M18.68,68.07a1.89,1.89,0,0,0-1.08-.3,1.88,1.88,0,0,0-.92.19q-.15.08-.15.18c0,.07.07.15.21.22a2.8,2.8,0,0,0,.69.15,8.18,8.18,0,0,1,1.39.27,1.64,1.64,0,0,1,.79.54,1.19,1.19,0,0,1,.28.75,1.1,1.1,0,0,1-.47.9,2.82,2.82,0,0,1-1.77.52,4,4,0,0,1-.8-.07,2.86,2.86,0,0,1-.68-.23.44.44,0,0,1-.15.1.53.53,0,0,1-.17,0,.51.51,0,0,1-.38-.16.76.76,0,0,1-.14-.51v-.34a.81.81,0,0,1,.14-.52.5.5,0,0,1,.37-.15.44.44,0,0,1,.3.1.72.72,0,0,1,.19.34,1.62,1.62,0,0,0,.55.3,2.41,2.41,0,0,0,.74.1,2.23,2.23,0,0,0,1.07-.21c.12-.08.18-.15.18-.23a.36.36,0,0,0-.25-.32,3.7,3.7,0,0,0-1.07-.22A3.06,3.06,0,0,1,15.93,69a1.14,1.14,0,0,1-.4-.88,1.11,1.11,0,0,1,.45-.9,2.55,2.55,0,0,1,1.61-.49,3.53,3.53,0,0,1,.67.07,3.11,3.11,0,0,1,.61.2,1.12,1.12,0,0,1,.18-.1.4.4,0,0,1,.15,0,.45.45,0,0,1,.34.15.78.78,0,0,1,.13.52v.24a.87.87,0,0,1-.07.44.51.51,0,0,1-.43.23.54.54,0,0,1-.32-.11A.56.56,0,0,1,18.68,68.07Z"
     id="path115" />
  <path
     d="M23.55,67.9v2a.56.56,0,0,0,.13.43,1.23,1.23,0,0,0,.74.16,3.05,3.05,0,0,0,1.41-.33,1,1,0,0,1,.39-.12.44.44,0,0,1,.34.14.49.49,0,0,1,.15.36.47.47,0,0,1-.16.34,2.36,2.36,0,0,1-.95.42,4.53,4.53,0,0,1-1.18.19,2.07,2.07,0,0,1-1.4-.4,1.27,1.27,0,0,1-.47-1V67.9h-.36a.81.81,0,0,1-.52-.14.48.48,0,0,1-.15-.37.45.45,0,0,1,.15-.35.75.75,0,0,1,.52-.14h.36V66a.76.76,0,0,1,.14-.51.48.48,0,0,1,.72,0,.76.76,0,0,1,.14.51v.91H25.4a.74.74,0,0,1,.52.14.51.51,0,0,1,0,.72.79.79,0,0,1-.52.14Z"
     id="path116" />
  <path
     d="M30.9,71.33V71.1a3.55,3.55,0,0,1-.83.3,4.34,4.34,0,0,1-.82.1,2,2,0,0,1-1.31-.43,1.24,1.24,0,0,1-.51-.95A1.51,1.51,0,0,1,28.08,69a2.6,2.6,0,0,1,1.77-.54,7.19,7.19,0,0,1,1,.09v-.24a.41.41,0,0,0-.19-.36,1.31,1.31,0,0,0-.74-.14,4.82,4.82,0,0,0-1.15.17,2,2,0,0,1-.41.06.44.44,0,0,1-.34-.14.53.53,0,0,1-.14-.37.51.51,0,0,1,.05-.22.4.4,0,0,1,.14-.15,2.11,2.11,0,0,1,.36-.13,6.41,6.41,0,0,1,.76-.16,4.73,4.73,0,0,1,.7-.07,2.31,2.31,0,0,1,1.45.41,1.32,1.32,0,0,1,.51,1.1v2.06h.17a.79.79,0,0,1,.52.14.51.51,0,0,1,0,.72.79.79,0,0,1-.52.14Zm0-1.79a5.69,5.69,0,0,0-1.11-.12,1.83,1.83,0,0,0-1.05.3c-.18.13-.27.25-.27.38a.25.25,0,0,0,.13.23,1.18,1.18,0,0,0,.67.17,2.7,2.7,0,0,0,.82-.15A3,3,0,0,0,30.9,70Z"
     id="path117" />
  <path
     d="M36,66.9v.62a5.27,5.27,0,0,1,1-.6,1.64,1.64,0,0,1,.68-.16,1.46,1.46,0,0,1,.94.37.67.67,0,0,1,.32.49.5.5,0,0,1-.15.37.49.49,0,0,1-.36.15A.62.62,0,0,1,38,68a.6.6,0,0,0-.37-.18A1.27,1.27,0,0,0,37,68a11,11,0,0,0-1,.79v1.51h1.43a.76.76,0,0,1,.51.14.49.49,0,0,1,0,.72.76.76,0,0,1-.51.14h-3a.77.77,0,0,1-.52-.14.51.51,0,0,1,0-.72.77.77,0,0,1,.52-.14H35V67.9h-.36a.76.76,0,0,1-.51-.14.46.46,0,0,1-.16-.37.43.43,0,0,1,.16-.35.71.71,0,0,1,.51-.14Z"
     id="path118" />
  <path
     d="M42.15,67.9v2a.52.52,0,0,0,.14.43,1.19,1.19,0,0,0,.73.16,3.05,3.05,0,0,0,1.41-.33,1,1,0,0,1,.4-.12.42.42,0,0,1,.33.14.49.49,0,0,1,.15.36.44.44,0,0,1-.16.34,2.37,2.37,0,0,1-.94.42,4.59,4.59,0,0,1-1.19.19,2.09,2.09,0,0,1-1.4-.4,1.27,1.27,0,0,1-.47-1V67.9h-.36a.76.76,0,0,1-.51-.14.46.46,0,0,1-.16-.37.43.43,0,0,1,.16-.35.71.71,0,0,1,.51-.14h.36V66a.76.76,0,0,1,.14-.51.49.49,0,0,1,.37-.16.5.5,0,0,1,.36.16.76.76,0,0,1,.13.51v.91H44a.72.72,0,0,1,.52.14.51.51,0,0,1,0,.72.77.77,0,0,1-.52.14Z"
     id="path119" />
  <circle
     class="cls-2"
     cx="670"
     cy="70"
     r="20"
     id="circle119" />
  <circle
     class="cls-2"
     cx="670"
     cy="70"
     r="24.17"
     id="circle120" />
  <path
     d="M661.78,69.07a2,2,0,0,0-.51-.23,2.1,2.1,0,0,0-.56-.07,1.89,1.89,0,0,0-.93.19q-.15.08-.15.18c0,.07.07.14.21.22a2.8,2.8,0,0,0,.69.15,8.18,8.18,0,0,1,1.39.27,1.64,1.64,0,0,1,.79.54,1.19,1.19,0,0,1,.28.75,1.1,1.1,0,0,1-.47.9,2.82,2.82,0,0,1-1.77.52,4,4,0,0,1-.8-.07,3,3,0,0,1-.68-.23.36.36,0,0,1-.15.1.53.53,0,0,1-.17,0,.51.51,0,0,1-.38-.16.76.76,0,0,1-.14-.51v-.34a.81.81,0,0,1,.14-.52.5.5,0,0,1,.37-.15.44.44,0,0,1,.3.1.72.72,0,0,1,.19.34,1.62,1.62,0,0,0,.55.3,2.41,2.41,0,0,0,.74.1,2.23,2.23,0,0,0,1.07-.21c.12-.08.18-.15.18-.23a.36.36,0,0,0-.25-.32,3.7,3.7,0,0,0-1.07-.22A3,3,0,0,1,659,70a1.14,1.14,0,0,1,0-1.78,2.56,2.56,0,0,1,1.62-.49,3.51,3.51,0,0,1,.66.07,2.43,2.43,0,0,1,.61.2,1.12,1.12,0,0,1,.18-.1l.15,0a.45.45,0,0,1,.34.15.77.77,0,0,1,.14.52v.24a.85.85,0,0,1-.08.44.51.51,0,0,1-.43.23.49.49,0,0,1-.31-.11A.52.52,0,0,1,661.78,69.07Z"
     id="path120" />
  <path
     d="M666.65,68.9v2a.56.56,0,0,0,.13.43,1.25,1.25,0,0,0,.74.16,3.05,3.05,0,0,0,1.41-.33,1,1,0,0,1,.39-.12.44.44,0,0,1,.34.14.49.49,0,0,1,.15.36.47.47,0,0,1-.16.34,2.37,2.37,0,0,1-.94.42,4.59,4.59,0,0,1-1.19.19,2.07,2.07,0,0,1-1.4-.4,1.27,1.27,0,0,1-.47-1V68.9h-.36a.76.76,0,0,1-.51-.14.46.46,0,0,1-.16-.37.43.43,0,0,1,.16-.35.71.71,0,0,1,.51-.14h.36V67a.76.76,0,0,1,.14-.51.48.48,0,0,1,.72,0,.71.71,0,0,1,.14.51v.91h1.85A.74.74,0,0,1,669,68a.51.51,0,0,1,0,.72.79.79,0,0,1-.52.14Z"
     id="path121" />
  <path
     d="M675.7,70.2a2.18,2.18,0,0,1-.32,1.11,2.22,2.22,0,0,1-1,.86,2.92,2.92,0,0,1-1.32.32,2.87,2.87,0,0,1-1.31-.31,2.22,2.22,0,0,1-.95-.86,2.14,2.14,0,0,1-.33-1.13,2.34,2.34,0,0,1,.33-1.18,2.28,2.28,0,0,1,1-.91,2.74,2.74,0,0,1,1.3-.34,2.81,2.81,0,0,1,1.31.34,2.37,2.37,0,0,1,1,.92A2.41,2.41,0,0,1,675.7,70.2Zm-1,0a1.35,1.35,0,0,0-.35-.89,1.56,1.56,0,0,0-1.24-.54,1.6,1.6,0,0,0-1.14.43,1.37,1.37,0,0,0-.45,1,1.15,1.15,0,0,0,.46.87,1.76,1.76,0,0,0,2.26,0A1.15,1.15,0,0,0,674.7,70.2Z"
     id="path122" />
  <path
     d="M678.06,71.78v1.64h.6a.71.71,0,0,1,.51.14.49.49,0,0,1,0,.72.76.76,0,0,1-.51.14h-1.77a.77.77,0,0,1-.52-.14.51.51,0,0,1,0-.72.75.75,0,0,1,.52-.14h.17V68.9h-.17a.77.77,0,0,1-.52-.14.48.48,0,0,1-.15-.37.45.45,0,0,1,.15-.35.72.72,0,0,1,.52-.14h1.17v.34a2.61,2.61,0,0,1,.73-.36,2.48,2.48,0,0,1,.77-.12,2.43,2.43,0,0,1,1.74.7,2.13,2.13,0,0,1,.73,1.59,2,2,0,0,1-.86,1.64,2.58,2.58,0,0,1-1.6.54,2.92,2.92,0,0,1-.77-.11A3.27,3.27,0,0,1,678.06,71.78Zm3-1.72a1.31,1.31,0,0,0-.17-.54,1.45,1.45,0,0,0-.51-.54,1.53,1.53,0,0,0-.81-.21,1.39,1.39,0,0,0-1.18.56,1.2,1.2,0,0,0-.3.74,1,1,0,0,0,.43.78,1.52,1.52,0,0,0,1,.38,1.55,1.55,0,0,0,1.06-.38A1.08,1.08,0,0,0,681,70.06Z"
     id="path123" />
  <path
     d="M202.4,154.4v-6.27a1.07,1.07,0,0,1-.75-.23.72.72,0,0,1-.25-.57.75.75,0,0,1,.25-.58,1.2,1.2,0,0,1,.82-.23h3.36a4.19,4.19,0,0,1,1.52.29,3.49,3.49,0,0,1,1.2.73,5.9,5.9,0,0,1,1.28,2.09,4.83,4.83,0,0,1,.18,1.41v.77a4.41,4.41,0,0,1-.34,1.8,3.68,3.68,0,0,1-.9,1.28,4.78,4.78,0,0,1-1.05.73,4.72,4.72,0,0,1-2,.37h-3.22a1.2,1.2,0,0,1-.82-.22.78.78,0,0,1-.25-.58.76.76,0,0,1,.25-.58A1,1,0,0,1,202.4,154.4Zm1.6,0h1.7a2.91,2.91,0,0,0,1.44-.28,2.39,2.39,0,0,0,1-.91,2.9,2.9,0,0,0,.32-1.44V151a2.93,2.93,0,0,0-.29-1.33,2.88,2.88,0,0,0-1-1.23,2.79,2.79,0,0,0-1.42-.33H204Z"
     id="path124" />
  <path
     d="M215,152.75v1.65h1.62a1.23,1.23,0,0,1,.83.22.82.82,0,0,1,0,1.16,1.23,1.23,0,0,1-.83.22h-3.47a1.2,1.2,0,0,1-.82-.22.74.74,0,0,1-.25-.58.73.73,0,0,1,.25-.58,1.22,1.22,0,0,1,.82-.22h.25v-6.27h-.25a1.2,1.2,0,0,1-.82-.22.73.73,0,0,1-.25-.58.72.72,0,0,1,.25-.58,1.2,1.2,0,0,1,.82-.23h3.69a3.62,3.62,0,0,1,2.57.89,2.93,2.93,0,0,1,.63,3.49,2.93,2.93,0,0,1-.81.92,4.09,4.09,0,0,1-1.15.69,4.51,4.51,0,0,1-1.56.23Zm0-1.6h1.49a2.68,2.68,0,0,0,1.66-.47,1.41,1.41,0,0,0,.61-1.14,1.27,1.27,0,0,0-.49-1,2.17,2.17,0,0,0-1.42-.42H215Z"
     id="path125" />
  <path
     d="M222.24,154.4v-6.27a1.07,1.07,0,0,1-.75-.23.75.75,0,0,1-.24-.57.74.74,0,0,1,.24-.58,1.23,1.23,0,0,1,.83-.23h3.35a4.28,4.28,0,0,1,1.53.29,3.54,3.54,0,0,1,1.19.73,5.59,5.59,0,0,1,.72.93,5.13,5.13,0,0,1,.56,1.16,4.81,4.81,0,0,1,.19,1.41v.77a4.41,4.41,0,0,1-.35,1.8,3.68,3.68,0,0,1-.9,1.28,4.36,4.36,0,0,1-1.05.73,4.7,4.7,0,0,1-2,.37h-3.22a1.23,1.23,0,0,1-.83-.22.77.77,0,0,1-.24-.58.75.75,0,0,1,.24-.58A1.05,1.05,0,0,1,222.24,154.4Zm1.6,0h1.7a2.89,2.89,0,0,0,1.44-.28,2.39,2.39,0,0,0,1-.91,2.79,2.79,0,0,0,.32-1.44V151a2.8,2.8,0,0,0-.29-1.33,2.94,2.94,0,0,0-1-1.23,2.81,2.81,0,0,0-1.42-.33h-1.69Z"
     id="path126" />
  <path
     d="M234.82,152.75v1.65h1.61a1.23,1.23,0,0,1,.83.22.82.82,0,0,1,0,1.16,1.23,1.23,0,0,1-.83.22H233a1.2,1.2,0,0,1-.82-.22.78.78,0,0,1-.25-.58.76.76,0,0,1,.25-.58,1.22,1.22,0,0,1,.82-.22h.25v-6.27H233a1.2,1.2,0,0,1-.82-.22.76.76,0,0,1-.25-.58.75.75,0,0,1,.25-.58,1.2,1.2,0,0,1,.82-.23h3.69a3.64,3.64,0,0,1,2.58.89,2.85,2.85,0,0,1,1,2.16,2.93,2.93,0,0,1-.32,1.33,3.21,3.21,0,0,1-.81.92,4.28,4.28,0,0,1-1.16.69,4.43,4.43,0,0,1-1.56.23Zm0-1.6h1.48a2.68,2.68,0,0,0,1.66-.47,1.41,1.41,0,0,0,.61-1.14,1.27,1.27,0,0,0-.49-1,2.15,2.15,0,0,0-1.42-.42h-1.84Z"
     id="path127" />
  <path
     d="M257,156v-.38a5.28,5.28,0,0,1-1.33.49,6.75,6.75,0,0,1-1.32.16,3.13,3.13,0,0,1-2.1-.69,2,2,0,0,1-.8-1.51,2.43,2.43,0,0,1,1-1.87,4.25,4.25,0,0,1,2.84-.86,11.06,11.06,0,0,1,1.68.15v-.38a.72.72,0,0,0-.31-.59,2.18,2.18,0,0,0-1.18-.22,7.83,7.83,0,0,0-1.84.28,2.85,2.85,0,0,1-.66.1.74.74,0,0,1-.54-.23.8.8,0,0,1-.22-.59.75.75,0,0,1,.07-.35.73.73,0,0,1,.22-.24,3,3,0,0,1,.59-.22c.39-.1.8-.19,1.21-.26a7.76,7.76,0,0,1,1.12-.09,3.67,3.67,0,0,1,2.31.64,2.12,2.12,0,0,1,.83,1.76v3.3h.27a1.23,1.23,0,0,1,.83.22.82.82,0,0,1,0,1.16,1.23,1.23,0,0,1-.83.22Zm0-2.87a9.76,9.76,0,0,0-1.78-.18,2.91,2.91,0,0,0-1.68.47.81.81,0,0,0-.43.62.44.44,0,0,0,.21.37,1.93,1.93,0,0,0,1.07.25,4.53,4.53,0,0,0,1.31-.22,4.88,4.88,0,0,0,1.3-.62Z"
     id="path128" />
  <path
     d="M267.24,150.78a3.3,3.3,0,0,0-.82-.36,3.37,3.37,0,0,0-.9-.12,3.11,3.11,0,0,0-1.48.3c-.16.09-.24.19-.24.29s.11.24.33.35a3.8,3.8,0,0,0,1.12.24,13.82,13.82,0,0,1,2.21.44,2.69,2.69,0,0,1,1.27.86,1.9,1.9,0,0,1,.44,1.2,1.74,1.74,0,0,1-.75,1.44,4.5,4.5,0,0,1-2.82.84,6.5,6.5,0,0,1-1.29-.12,4.57,4.57,0,0,1-1.08-.36,1,1,0,0,1-.25.16.86.86,0,0,1-.27.05.78.78,0,0,1-.6-.24,1.23,1.23,0,0,1-.22-.83v-.54a1.2,1.2,0,0,1,.22-.82.73.73,0,0,1,.58-.25.77.77,0,0,1,.48.16,1.06,1.06,0,0,1,.31.55,2.49,2.49,0,0,0,.88.48,4.28,4.28,0,0,0,1.19.16,3.52,3.52,0,0,0,1.71-.35c.19-.11.29-.23.29-.36s-.14-.38-.41-.51a6.19,6.19,0,0,0-1.72-.35,4.75,4.75,0,0,1-2.57-.78,1.78,1.78,0,0,1-.65-1.4,1.74,1.74,0,0,1,.72-1.43,4,4,0,0,1,2.58-.78,5.32,5.32,0,0,1,1.07.1,4.68,4.68,0,0,1,1,.32,1.64,1.64,0,0,1,.28-.16.52.52,0,0,1,.24-.05.7.7,0,0,1,.54.24,1.23,1.23,0,0,1,.22.83v.39a1.45,1.45,0,0,1-.12.71.8.8,0,0,1-.68.36.76.76,0,0,1-.51-.18A.79.79,0,0,1,267.24,150.78Z"
     id="path129" />
  <path
     d="M286.79,156v-.38a5,5,0,0,1-1.33.49,6.57,6.57,0,0,1-1.32.16,3.08,3.08,0,0,1-2.09-.69,2,2,0,0,1-.81-1.51,2.47,2.47,0,0,1,1-1.87,4.26,4.26,0,0,1,2.84-.86,10.85,10.85,0,0,1,1.68.15v-.38a.69.69,0,0,0-.31-.59,2.14,2.14,0,0,0-1.17-.22,7.9,7.9,0,0,0-1.85.28,2.85,2.85,0,0,1-.65.1.75.75,0,0,1-.55-.23.84.84,0,0,1-.22-.59.75.75,0,0,1,.08-.35.56.56,0,0,1,.22-.24,2.83,2.83,0,0,1,.58-.22c.4-.1.8-.19,1.21-.26a8,8,0,0,1,1.12-.09,3.68,3.68,0,0,1,2.32.64,2.11,2.11,0,0,1,.82,1.76v3.3h.28a1.2,1.2,0,0,1,.82.22.8.8,0,0,1,0,1.16,1.2,1.2,0,0,1-.82.22Zm0-2.87A9.66,9.66,0,0,0,285,153a2.91,2.91,0,0,0-1.68.47.82.82,0,0,0-.44.62.44.44,0,0,0,.21.37,2,2,0,0,0,1.07.25,4.48,4.48,0,0,0,1.31-.22,4.74,4.74,0,0,0,1.3-.62Z"
     id="path130" />
  <path
     d="M305.18,150.51v3.89h2.28a1.23,1.23,0,0,1,.83.22.82.82,0,0,1,0,1.16,1.23,1.23,0,0,1-.83.22h-4.83a1.23,1.23,0,0,1-.83-.22.77.77,0,0,1-.24-.58.75.75,0,0,1,.24-.58,1.23,1.23,0,0,1,.83-.22h.95v-3.89h-.77a1.26,1.26,0,0,1-.82-.22.78.78,0,0,1-.25-.59.76.76,0,0,1,.25-.57,1.2,1.2,0,0,1,.82-.22h.77v-.61a2.2,2.2,0,0,1,.79-1.74,3.33,3.33,0,0,1,2.27-.69,11.5,11.5,0,0,1,1.54.12,2.26,2.26,0,0,1,1.11.34.69.69,0,0,1,.25.56.82.82,0,0,1-.22.6.71.71,0,0,1-.54.23,2.44,2.44,0,0,1-.44-.06,9.21,9.21,0,0,0-1.76-.19,1.84,1.84,0,0,0-1.1.24.72.72,0,0,0-.3.59v.61h2.47a1.18,1.18,0,0,1,.82.22.8.8,0,0,1,0,1.16,1.24,1.24,0,0,1-.82.22Z"
     id="path131" />
  <path
     d="M315.91,148.91v5.49h1.92a1.2,1.2,0,0,1,.82.22.8.8,0,0,1,0,1.16,1.2,1.2,0,0,1-.82.22h-5.45a1.2,1.2,0,0,1-.82-.22.78.78,0,0,1-.25-.58.76.76,0,0,1,.25-.58,1.2,1.2,0,0,1,.82-.22h1.93v-3.89H313a1.26,1.26,0,0,1-.82-.22.81.81,0,0,1,0-1.16,1.23,1.23,0,0,1,.83-.22Zm-.22-3v1.69h-1.91v-1.69Z"
     id="path132" />
  <path
     d="M323.42,148.91v.54a3.13,3.13,0,0,1,1-.57,3.49,3.49,0,0,1,1.14-.18,2.92,2.92,0,0,1,2.25.88,2.58,2.58,0,0,1,.66,1.84v3a1.07,1.07,0,0,1,.75.22.82.82,0,0,1,0,1.16,1.23,1.23,0,0,1-.83.22h-1.44a1.23,1.23,0,0,1-.83-.22.77.77,0,0,1-.24-.58.75.75,0,0,1,.24-.58,1.07,1.07,0,0,1,.75-.22v-3a1,1,0,0,0-.28-.77,1.66,1.66,0,0,0-1.1-.31,2.17,2.17,0,0,0-1,.21,4.62,4.62,0,0,0-1.05.91v3a1.65,1.65,0,0,1,.79.12.73.73,0,0,1,.38.68.75.75,0,0,1-.24.58,1.23,1.23,0,0,1-.83.22H321.7a1.2,1.2,0,0,1-.82-.22.78.78,0,0,1-.25-.58.76.76,0,0,1,.38-.68,1.7,1.7,0,0,1,.8-.12v-3.89a1.07,1.07,0,0,1-.75-.23.75.75,0,0,1-.24-.58.72.72,0,0,1,.25-.57,1.2,1.2,0,0,1,.82-.22Z"
     id="path133" />
  <path
     d="M335.75,148.91v5.49h1.92a1.23,1.23,0,0,1,.83.22.82.82,0,0,1,0,1.16,1.23,1.23,0,0,1-.83.22h-5.44a1.23,1.23,0,0,1-.83-.22.77.77,0,0,1-.24-.58.75.75,0,0,1,.24-.58,1.23,1.23,0,0,1,.83-.22h1.92v-3.89h-1.29a1.28,1.28,0,0,1-.82-.22.75.75,0,0,1-.25-.59.72.72,0,0,1,.25-.57,1.18,1.18,0,0,1,.82-.22Zm-.22-3v1.69h-1.9v-1.69Z"
     id="path134" />
  <path
     d="M344.49,150.51v3.21a.85.85,0,0,0,.21.68,2,2,0,0,0,1.17.26,4.92,4.92,0,0,0,2.26-.53,1.63,1.63,0,0,1,.63-.2.74.74,0,0,1,.54.23.77.77,0,0,1,.23.57.69.69,0,0,1-.25.54,3.68,3.68,0,0,1-1.51.68,7.28,7.28,0,0,1-1.9.31,3.35,3.35,0,0,1-2.24-.65,2,2,0,0,1-.75-1.58v-3.52h-.57a1.29,1.29,0,0,1-.83-.22.78.78,0,0,1-.24-.59.75.75,0,0,1,.24-.57,1.23,1.23,0,0,1,.83-.22h.57v-1.45a1.2,1.2,0,0,1,.23-.82.79.79,0,0,1,1.15,0,1.2,1.2,0,0,1,.23.82v1.45h3a1.2,1.2,0,0,1,.82.22.8.8,0,0,1,0,1.16,1.26,1.26,0,0,1-.82.22Z"
     id="path135" />
  <path
     d="M358.82,153.27h-6.57a2,2,0,0,0,.89,1,3.27,3.27,0,0,0,1.72.39,9.89,9.89,0,0,0,2.37-.39,4.11,4.11,0,0,1,.84-.15.73.73,0,0,1,.54.22.83.83,0,0,1,.22.57.71.71,0,0,1-.24.54,3.78,3.78,0,0,1-1.52.55,11.31,11.31,0,0,1-2.33.26,4.27,4.27,0,0,1-3.07-1.09,3.5,3.5,0,0,1-1.15-2.67,3.45,3.45,0,0,1,1.24-2.75,4.33,4.33,0,0,1,2.87-1.05,4.62,4.62,0,0,1,1.8.34,3.88,3.88,0,0,1,1.21.74,4.54,4.54,0,0,1,.93,1.43,3.5,3.5,0,0,1,.25,1.38Zm-1.77-1.61a2.56,2.56,0,0,0-1-1,2.79,2.79,0,0,0-1.42-.34,2.72,2.72,0,0,0-1.4.34,2.52,2.52,0,0,0-1,1Z"
     id="path136" />
  <path
     d="M376.38,150.78a3.37,3.37,0,0,0-.83-.36,3.24,3.24,0,0,0-.89-.12,3.08,3.08,0,0,0-1.48.3c-.16.09-.24.19-.24.29s.11.24.33.35a3.71,3.71,0,0,0,1.11.24,14,14,0,0,1,2.22.44,2.69,2.69,0,0,1,1.27.86,2,2,0,0,1,.44,1.2,1.72,1.72,0,0,1-.76,1.44,4.46,4.46,0,0,1-2.82.84,6.4,6.4,0,0,1-1.28-.12,4.57,4.57,0,0,1-1.08-.36,1,1,0,0,1-.25.16.87.87,0,0,1-.28.05.75.75,0,0,1-.59-.24,1.23,1.23,0,0,1-.23-.83v-.54a1.2,1.2,0,0,1,.23-.82.72.72,0,0,1,.58-.25.77.77,0,0,1,.48.16,1.14,1.14,0,0,1,.31.55,2.49,2.49,0,0,0,.88.48,4.23,4.23,0,0,0,1.19.16,3.52,3.52,0,0,0,1.71-.35c.19-.11.29-.23.29-.36s-.14-.38-.42-.51a6,6,0,0,0-1.71-.35,4.82,4.82,0,0,1-2.58-.78,1.8,1.8,0,0,1-.64-1.4,1.74,1.74,0,0,1,.72-1.43,4,4,0,0,1,2.58-.78,5.32,5.32,0,0,1,1.07.1,4.68,4.68,0,0,1,1,.32A2.09,2.09,0,0,1,377,149a.57.57,0,0,1,.24-.05.72.72,0,0,1,.55.24,1.23,1.23,0,0,1,.22.83v.39a1.32,1.32,0,0,1-.13.71.77.77,0,0,1-.68.36.75.75,0,0,1-.5-.18A.79.79,0,0,1,376.38,150.78Z"
     id="path137" />
  <path
     d="M384.17,150.51v3.21a.85.85,0,0,0,.21.68,2,2,0,0,0,1.17.26,5,5,0,0,0,2.27-.53,1.55,1.55,0,0,1,.62-.2.78.78,0,0,1,.55.23.81.81,0,0,1,.23.57.72.72,0,0,1-.25.54,3.75,3.75,0,0,1-1.51.68,7.34,7.34,0,0,1-1.91.31,3.32,3.32,0,0,1-2.23-.65,2,2,0,0,1-.75-1.58v-3.52H382a1.26,1.26,0,0,1-.82-.22.75.75,0,0,1-.25-.59.72.72,0,0,1,.25-.57,1.2,1.2,0,0,1,.82-.22h.58v-1.45a1.2,1.2,0,0,1,.22-.82.8.8,0,0,1,1.16,0,1.2,1.2,0,0,1,.22.82v1.45h3a1.23,1.23,0,0,1,.83.22.82.82,0,0,1,0,1.16,1.29,1.29,0,0,1-.83.22Z"
     id="path138" />
  <path
     d="M395.93,156v-.38a5.14,5.14,0,0,1-1.33.49,6.57,6.57,0,0,1-1.32.16,3.08,3.08,0,0,1-2.09-.69,2,2,0,0,1-.81-1.51,2.43,2.43,0,0,1,1-1.87,4.25,4.25,0,0,1,2.84-.86,11.06,11.06,0,0,1,1.68.15v-.38a.69.69,0,0,0-.31-.59,2.18,2.18,0,0,0-1.18-.22,7.91,7.91,0,0,0-1.84.28,2.85,2.85,0,0,1-.66.1.74.74,0,0,1-.54-.23.8.8,0,0,1-.22-.59.75.75,0,0,1,.08-.35.56.56,0,0,1,.22-.24,2.6,2.6,0,0,1,.58-.22c.4-.1.8-.19,1.21-.26a7.87,7.87,0,0,1,1.12-.09,3.7,3.7,0,0,1,2.32.64,2.11,2.11,0,0,1,.82,1.76v3.3h.27a1.23,1.23,0,0,1,.83.22.82.82,0,0,1,0,1.16,1.23,1.23,0,0,1-.83.22Zm0-2.87a9.66,9.66,0,0,0-1.77-.18,2.86,2.86,0,0,0-1.68.47.8.8,0,0,0-.44.62.44.44,0,0,0,.21.37,2,2,0,0,0,1.07.25,4.48,4.48,0,0,0,1.31-.22,4.74,4.74,0,0,0,1.3-.62Z"
     id="path139" />
  <path
     d="M404,150.51v3.21a.81.81,0,0,0,.22.68,1.94,1.94,0,0,0,1.17.26,5,5,0,0,0,2.26-.53,1.63,1.63,0,0,1,.63-.2.74.74,0,0,1,.54.23.81.81,0,0,1,.23.57.69.69,0,0,1-.25.54,3.68,3.68,0,0,1-1.51.68,7.28,7.28,0,0,1-1.9.31,3.35,3.35,0,0,1-2.24-.65,2,2,0,0,1-.75-1.58v-3.52h-.58a1.26,1.26,0,0,1-.82-.22.78.78,0,0,1-.25-.59.76.76,0,0,1,.25-.57,1.2,1.2,0,0,1,.82-.22h.58v-1.45a1.2,1.2,0,0,1,.23-.82.79.79,0,0,1,1.15,0,1.2,1.2,0,0,1,.22.82v1.45h3a1.2,1.2,0,0,1,.82.22.8.8,0,0,1,0,1.16,1.26,1.26,0,0,1-.82.22Z"
     id="path140" />
  <path
     d="M418.35,153.27h-6.57a2,2,0,0,0,.89,1,3.27,3.27,0,0,0,1.72.39,9.89,9.89,0,0,0,2.37-.39,4.11,4.11,0,0,1,.84-.15.73.73,0,0,1,.54.22.83.83,0,0,1,.22.57.71.71,0,0,1-.24.54,3.78,3.78,0,0,1-1.52.55,11.31,11.31,0,0,1-2.33.26,4.27,4.27,0,0,1-3.07-1.09A3.51,3.51,0,0,1,410,152.5a3.46,3.46,0,0,1,1.25-2.75,4.33,4.33,0,0,1,2.87-1.05,4.62,4.62,0,0,1,1.8.34,4,4,0,0,1,1.21.74,4.91,4.91,0,0,1,.93,1.43,3.5,3.5,0,0,1,.25,1.38Zm-1.77-1.61a2.56,2.56,0,0,0-1-1,3.11,3.11,0,0,0-2.83,0,2.56,2.56,0,0,0-1,1Z"
     id="path141" />
  <path
     d="M431.7,148.91v.45a2.65,2.65,0,0,1,.71-.53,1.83,1.83,0,0,1,.73-.14,1.59,1.59,0,0,1,.69.17,2.42,2.42,0,0,1,.68.52,3.14,3.14,0,0,1,.84-.52,2.35,2.35,0,0,1,.87-.16,2.12,2.12,0,0,1,1.44.47,2.07,2.07,0,0,1,.74,1.64v3.59a1.06,1.06,0,0,1,.74.22.78.78,0,0,1,.24.58.75.75,0,0,1-.24.58,1.2,1.2,0,0,1-.82.22h-1.53V151a.73.73,0,0,0-.13-.51.5.5,0,0,0-.4-.14.9.9,0,0,0-.5.14,3.53,3.53,0,0,0-.7.73v3.23a1.06,1.06,0,0,1,.74.22.78.78,0,0,1,.24.58.75.75,0,0,1-.24.58,1.18,1.18,0,0,1-.82.22h-1.52V151a.76.76,0,0,0-.14-.51.53.53,0,0,0-.41-.14,1,1,0,0,0-.55.17,2.83,2.83,0,0,0-.66.7v3.23a1.1,1.1,0,0,1,.75.22.78.78,0,0,1,.24.58.75.75,0,0,1-.24.58,1.23,1.23,0,0,1-.83.22h-1.44a1.23,1.23,0,0,1-.83-.22.77.77,0,0,1-.24-.58.75.75,0,0,1,.24-.58,1.07,1.07,0,0,1,.75-.22v-3.89a1.07,1.07,0,0,1-.75-.23.81.81,0,0,1,0-1.15,1.23,1.23,0,0,1,.83-.22Z"
     id="path142" />
  <path
     d="M445.54,156v-.38a5.28,5.28,0,0,1-1.33.49,6.75,6.75,0,0,1-1.32.16,3.13,3.13,0,0,1-2.1-.69,2,2,0,0,1-.8-1.51,2.43,2.43,0,0,1,1-1.87,4.25,4.25,0,0,1,2.84-.86,11.06,11.06,0,0,1,1.68.15v-.38a.72.72,0,0,0-.31-.59,2.18,2.18,0,0,0-1.18-.22,7.83,7.83,0,0,0-1.84.28,2.85,2.85,0,0,1-.66.1.74.74,0,0,1-.54-.23.8.8,0,0,1-.22-.59.75.75,0,0,1,.07-.35.73.73,0,0,1,.22-.24,3,3,0,0,1,.59-.22c.39-.1.8-.19,1.21-.26a7.76,7.76,0,0,1,1.12-.09,3.67,3.67,0,0,1,2.31.64,2.12,2.12,0,0,1,.83,1.76v3.3h.27a1.23,1.23,0,0,1,.83.22.82.82,0,0,1,0,1.16,1.23,1.23,0,0,1-.83.22Zm0-2.87a9.76,9.76,0,0,0-1.78-.18,2.91,2.91,0,0,0-1.68.47.81.81,0,0,0-.43.62.44.44,0,0,0,.21.37,1.93,1.93,0,0,0,1.07.25,4.53,4.53,0,0,0,1.31-.22,4.88,4.88,0,0,0,1.3-.62Z"
     id="path143" />
  <path
     d="M456.51,149.2a.86.86,0,0,1,.6-.28.7.7,0,0,1,.56.25,1.17,1.17,0,0,1,.23.81v1a1.22,1.22,0,0,1-.23.82.75.75,0,0,1-.58.24.8.8,0,0,1-.55-.19,1,1,0,0,1-.26-.57,1,1,0,0,0-.45-.65,3.18,3.18,0,0,0-1.62-.37,2.51,2.51,0,0,0-1.82.66,2.25,2.25,0,0,0-.68,1.68,1.83,1.83,0,0,0,.65,1.48,3.47,3.47,0,0,0,2.18.54,5.39,5.39,0,0,0,1.64-.2,2,2,0,0,0,.71-.42.92.92,0,0,1,.61-.31.77.77,0,0,1,.56.25.78.78,0,0,1,.24.57,1.28,1.28,0,0,1-.72,1,5.73,5.73,0,0,1-3.16.72,4.77,4.77,0,0,1-2.91-.78,3.35,3.35,0,0,1-1.4-2.84,3.79,3.79,0,0,1,1.14-2.83,4,4,0,0,1,3-1.12,6,6,0,0,1,1.24.12A4,4,0,0,1,456.51,149.2Z"
     id="path144" />
  <path
     d="M462.29,145.87v3.41a4.24,4.24,0,0,1,1-.44,3.6,3.6,0,0,1,1-.14,3.65,3.65,0,0,1,1.48.28,2.46,2.46,0,0,1,1.07.88,2.58,2.58,0,0,1,.43,1.53v3a1.72,1.72,0,0,1,.8.12.81.81,0,0,1,.13,1.26,1.2,1.2,0,0,1-.82.22h-1.83a1.22,1.22,0,0,1-.82-.22.77.77,0,0,1-.24-.58.75.75,0,0,1,.37-.68,1.51,1.51,0,0,1,.8-.12v-2.9a1.12,1.12,0,0,0-.28-.87,1.6,1.6,0,0,0-1.09-.33,2.2,2.2,0,0,0-.94.2,5.13,5.13,0,0,0-1.1.9v3a1.65,1.65,0,0,1,.79.12.79.79,0,0,1,.14,1.26,1.2,1.2,0,0,1-.82.22h-1.82a1.23,1.23,0,0,1-.83-.22.78.78,0,0,1-.25-.58.75.75,0,0,1,.39-.68,1.45,1.45,0,0,1,.79-.12v-6.93h-.27a1.26,1.26,0,0,1-.82-.22.75.75,0,0,1-.25-.59.72.72,0,0,1,.25-.57,1.2,1.2,0,0,1,.82-.22Z"
     id="path145" />
  <path
     d="M474.65,148.91v5.49h1.92a1.23,1.23,0,0,1,.83.22.82.82,0,0,1,0,1.16,1.23,1.23,0,0,1-.83.22h-5.44a1.23,1.23,0,0,1-.83-.22.77.77,0,0,1-.24-.58.75.75,0,0,1,.24-.58,1.23,1.23,0,0,1,.83-.22h1.92v-3.89h-1.29a1.28,1.28,0,0,1-.82-.22.75.75,0,0,1-.25-.59.72.72,0,0,1,.25-.57,1.2,1.2,0,0,1,.82-.22Zm-.22-3v1.69h-1.9v-1.69Z"
     id="path146" />
  <path
     d="M482.16,148.91v.54a3.13,3.13,0,0,1,1-.57,3.6,3.6,0,0,1,1.15-.18,2.92,2.92,0,0,1,2.25.88,2.58,2.58,0,0,1,.66,1.84v3a1.1,1.1,0,0,1,.75.22.75.75,0,0,1,.24.58.73.73,0,0,1-.25.58,1.2,1.2,0,0,1-.82.22h-1.45a1.2,1.2,0,0,1-.82-.22.74.74,0,0,1-.25-.58.75.75,0,0,1,.24-.58,1.1,1.1,0,0,1,.75-.22v-3a1,1,0,0,0-.28-.77,1.64,1.64,0,0,0-1.1-.31,2.13,2.13,0,0,0-1,.21,4.62,4.62,0,0,0-1.06.91v3a1.7,1.7,0,0,1,.8.12.75.75,0,0,1,.38.68.73.73,0,0,1-.25.58,1.18,1.18,0,0,1-.82.22h-1.82a1.23,1.23,0,0,1-.83-.22.77.77,0,0,1-.24-.58.75.75,0,0,1,.37-.68,1.78,1.78,0,0,1,.81-.12v-3.89a1.07,1.07,0,0,1-.75-.23.81.81,0,0,1,0-1.15,1.23,1.23,0,0,1,.83-.22Z"
     id="path147" />
  <path
     d="M497.72,153.27h-6.57a2,2,0,0,0,.89,1,3.27,3.27,0,0,0,1.72.39,9.81,9.81,0,0,0,2.37-.39,4.35,4.35,0,0,1,.84-.15.7.7,0,0,1,.54.22.78.78,0,0,1,.22.57.74.74,0,0,1-.23.54A3.92,3.92,0,0,1,496,156a11.24,11.24,0,0,1-2.33.26,4.27,4.27,0,0,1-3.07-1.09,3.5,3.5,0,0,1-1.15-2.67,3.45,3.45,0,0,1,1.24-2.75,4.35,4.35,0,0,1,2.88-1.05,4.57,4.57,0,0,1,1.79.34,3.88,3.88,0,0,1,1.21.74,4.54,4.54,0,0,1,.93,1.43,3.5,3.5,0,0,1,.25,1.38ZM496,151.66a2.56,2.56,0,0,0-1-1,2.79,2.79,0,0,0-1.42-.34,2.72,2.72,0,0,0-1.4.34,2.52,2.52,0,0,0-1,1Z"
     id="path148" />
</svg>
